<svg width="1280" height="375" xmlns="http://www.w3.org/2000/svg" xmlns:xlink="http://www.w3.org/1999/xlink" overflow="hidden"><defs><clipPath id="clip0"><rect x="0" y="0" width="1280" height="375"/></clipPath></defs><g clip-path="url(#clip0)"><rect x="0" y="0" width="1280" height="375.501" fill="#FFFFFF" fill-opacity="0"/><path d="M0.485202 82.2288 0.485202 0.142145 11.4852 0.142145 11.4852 94.1421Z" fill-rule="evenodd" transform="matrix(1 0 0 -1.00134 1269 95.1268)"/><path d="M11.4419 94.1441 11.4419 0.144059 0.441906 0.144059 0.441906 82.229Z" fill-rule="evenodd" transform="matrix(1 0 0 -1.00134 1050 95.1268)"/><path d="M12.4263 94.1441 12.4263 0.144059 0.426289 0.144059 0.426289 82.229Z" fill-rule="evenodd" transform="matrix(1 0 0 -1.00134 797 95.1268)"/><path d="M21.4221 16.4018 75.3303 16.4018 75.3303 110.132 63.8973 98.2528 63.8973 24.5992 45.7976 24.5992 45.8543 52.1455 36.3624 45.3664 36.3212 24.5992 21.5049 24.5992C21.5049 24.5992 20.0096 35.9873 12.7425 41.2451L6.38233 34.9844C6.38233 34.9844 24.776 17.5202 0.330083 0.131715 0.330083 0.131715 15.4681 3.44248 21.4221 16.4018" fill-rule="evenodd" transform="matrix(1 0 0 -1.00134 424 111.148)"/><path d="M18.3606 94.1441 18.3606 8.36335 0.438862 8.36335 0.438862 0.144059 29.4391 0.144059 29.4391 82.229Z" fill-rule="evenodd" transform="matrix(1 0 0 -1.00134 1013 95.1268)"/><path d="M12.4739 76.142 12.4739 0.142045 0.473904 0.142045 0.473904 67.0439Z" fill-rule="evenodd" transform="matrix(1 0 0 -1.00134 1012 76.1015)"/><path d="M11.4234 75.1424 11.4234 0.142431 0.423141 0.142431 0.423141 66.1829Z" fill-rule="evenodd" transform="matrix(1 0 0 -1.00134 922 76.1015)"/><path d="M19.5062 8.35125 19.5062 94.1307 30.7572 82.2175 30.7572 8.35125 41.8545 8.35125 41.8545 18.5578 50.2745 18.5578 50.2745 8.35125 57.4214 8.35125 57.4214 21.3509 65.8968 26.9655 65.8968 8.35125 73.0282 8.35125 73.0282 31.9845 81.4361 37.5688 81.4361 0.130417 0.435874 0.130417 0.435874 8.35125Z" fill-rule="evenodd" transform="matrix(1 0 0 -1.00134 921 95.1268)"/><path d="M11.9823 8.35125 11.9823 94.1307 0.493156 82.2175 0.493156 0.130417 69.4934 0.130417 69.4934 82.2175 58.006 94.1307 58.006 8.35125 50.2783 8.35125C50.2783 8.35125 45.2515 9.45274 44.2375 17.1538 43.2096 24.8609 38.55 34.5678 20.2194 32.2612L20.2194 24.1528C20.2194 24.1528 33.0434 28.4638 35.2812 16.6676 35.2812 16.6676 36.198 11.0544 38.6905 8.35125Z" fill-rule="evenodd" transform="matrix(1 0 0 -1.00134 1189 95.1268)"/><path d="M11.4865 5.62558C11.4865 2.61553 9.01063 0.143877 5.97917 0.143877 2.94921 0.143877 0.486211 2.61553 0.486211 5.62558 0.486211 8.69671 2.94921 11.1441 5.97917 11.1441 9.01063 11.1441 11.4865 8.69671 11.4865 5.62558" fill-rule="evenodd" transform="matrix(1 0 0 -1.00134 1087 53.0708)"/><path d="M10.4685 5.64963C10.4685 2.63589 8.22942 0.156682 5.46972 0.156682 2.71025 0.156682 0.46846 2.63589 0.46846 5.64963 0.46846 8.7208 2.71025 11.1569 5.46972 11.1569 8.22942 11.1569 10.4685 8.7208 10.4685 5.64963" fill-rule="evenodd" transform="matrix(1 0 0 -1.00134 1216 112.15)"/><path d="M10.4396 5.62558C10.4396 2.61553 8.19782 0.143877 5.43812 0.143877 2.67865 0.143877 0.439611 2.61553 0.439611 5.62558 0.439611 8.69671 2.67865 11.1441 5.43812 11.1441 8.19782 11.1441 10.4396 8.69671 10.4396 5.62558" fill-rule="evenodd" transform="matrix(1 0 0 -1.00134 1072 53.0708)"/><path d="M11.4328 5.64074C11.4328 2.6126 8.96508 0.143896 5.92544 0.143896 2.87168 0.143896 0.432757 2.6126 0.432757 5.64074 0.432757 8.71861 2.87168 11.1441 5.92544 11.1441 8.96508 11.1441 11.4328 8.71861 11.4328 5.64074" fill-rule="evenodd" transform="matrix(1 0 0 -1.00134 838 53.0708)"/><path d="M10.391 5.64074C10.391 2.6126 8.13017 0.143896 5.36616 0.143896 2.62557 0.143896 0.390955 2.6126 0.390955 5.64074 0.390955 8.71861 2.62557 11.1441 5.36616 11.1441 8.13017 11.1441 10.391 8.71861 10.391 5.64074" fill-rule="evenodd" transform="matrix(1 0 0 -1.00134 823 53.0708)"/><path d="M10.3991 5.64656C10.3991 2.62328 8.15469 0.157024 5.40643 0.157024 2.6451 0.157024 0.399092 2.62328 0.399092 5.64656 0.399092 8.68119 2.6451 11.157 5.40643 11.157 8.15469 11.157 10.3991 8.68119 10.3991 5.64656" fill-rule="evenodd" transform="matrix(1 0 0 -1.00134 867 113.151)"/><path d="M11.4346 5.64656C11.4346 2.62328 8.95907 0.157024 5.94345 0.157024 2.88306 0.157024 0.434647 2.62328 0.434647 5.64656 0.434647 8.68119 2.88306 11.157 5.94345 11.157 8.95907 11.157 11.4346 8.68119 11.4346 5.64656" fill-rule="evenodd" transform="matrix(1 0 0 -1.00134 851 113.151)"/><path d="M11.3881 5.64656C11.3881 2.62328 8.90459 0.157024 5.86714 0.157024 2.85691 0.157024 0.387814 2.62328 0.387814 5.64656 0.387814 8.68119 2.85691 11.157 5.86714 11.157 8.90459 11.157 11.3881 8.68119 11.3881 5.64656" fill-rule="evenodd" transform="matrix(1 0 0 -1.00134 634 113.151)"/><path d="M10.3492 5.64656C10.3492 2.62328 8.10715 0.157024 5.36073 0.157024 2.60263 0.157024 0.34917 2.62328 0.34917 5.64656 0.34917 8.68119 2.60263 11.157 5.36073 11.157 8.10715 11.157 10.3492 8.68119 10.3492 5.64656" fill-rule="evenodd" transform="matrix(1 0 0 -1.00134 619 113.151)"/><path d="M10.3096 5.6643C10.3096 2.6146 8.05449 0.14663 5.31105 0.14663 2.52524 0.14663 0.309559 2.6146 0.309559 5.6643 0.309559 8.69153 2.52524 11.1466 5.31105 11.1466 8.05449 11.1466 10.3096 8.69153 10.3096 5.6643" fill-rule="evenodd" transform="matrix(1 0 0 -1.00134 421 65.0868)"/><path d="M11.3501 5.64656C11.3501 2.62328 8.86588 0.157024 5.84341 0.157024 2.80354 0.157024 0.349843 2.62328 0.349843 5.64656 0.349843 8.68119 2.80354 11.157 5.84341 11.157 8.86588 11.157 11.3501 8.68119 11.3501 5.64656" fill-rule="evenodd" transform="matrix(1 0 0 -1.00134 461 113.151)"/><path d="M10.3141 5.64656C10.3141 2.62328 8.06233 0.157024 5.31986 0.157024 2.53967 0.157024 0.314143 2.62328 0.314143 5.64656 0.314143 8.68119 2.53967 11.157 5.31986 11.157 8.06233 11.157 10.3141 8.68119 10.3141 5.64656" fill-rule="evenodd" transform="matrix(1 0 0 -1.00134 446 113.151)"/><path d="M10.3029 5.64656C10.3029 2.62328 8.07418 0.157024 5.27831 0.157024 2.54493 0.157024 0.302919 2.62328 0.302919 5.64656 0.302919 8.68119 2.54493 11.157 5.27831 11.157 8.07418 11.157 10.3029 8.68119 10.3029 5.64656" fill-rule="evenodd" transform="matrix(1 0 0 -1.00134 388 113.151)"/><path d="M11.3295 5.64656C11.3295 2.62328 8.8665 0.157024 5.83831 0.157024 2.79226 0.157024 0.329255 2.62328 0.329255 5.64656 0.329255 8.68119 2.79226 11.157 5.83831 11.157 8.8665 11.157 11.3295 8.68119 11.3295 5.64656" fill-rule="evenodd" transform="matrix(1 0 0 -1.00134 372 113.151)"/><path d="M11.3816 5.13321C11.3816 2.37064 8.94406 0.131026 5.8958 0.131026 2.84602 0.131026 0.381568 2.37064 0.381568 5.13321 0.381568 7.89899 2.84602 10.1313 5.8958 10.1313 8.94406 10.1313 11.3816 7.89899 11.3816 5.13321" fill-rule="evenodd" transform="matrix(1 0 0 -1.00134 607 53.0708)"/><path d="M10.3444 5.13321C10.3444 2.37064 8.10071 0.131026 5.36333 0.131026 2.5865 0.131026 0.344179 2.37064 0.344179 5.13321 0.344179 7.89899 2.5865 10.1313 5.36333 10.1313 8.10071 10.1313 10.3444 7.89899 10.3444 5.13321" fill-rule="evenodd" transform="matrix(1 0 0 -1.00134 592 53.0708)"/><path d="M11.8725 8.35125 23.7079 8.35125C22.0765 9.25077 21.3168 8.86479 20.095 12.9599 19.3093 15.7527 19.2385 22.5923 19.7422 25.4687 20.3322 29.0716 21.2768 30.9163 22.8915 32.3507 25.056 34.3687 29.1605 35.8777 32.0985 35.8777L56.1024 35.8777 56.1024 26.5855 38.4784 26.5855C34.2618 26.0856 34.4573 26.0856 32.4343 25.0447 29.3578 23.5754 29.7797 20.7277 29.7797 17.1538 29.7797 13.0511 29.9893 12.0451 32.2094 10.4693 34.4311 8.84803 34.9365 8.86479 38.6618 8.35125L38.7036 8.35125 67.907 8.35125 67.907 94.1307 79.3914 82.2175 79.3914 0.130417 0.391117 0.130417 0.391117 82.2175 11.8725 94.1307Z" fill-rule="evenodd" transform="matrix(1 0 0 -1.00134 710 95.1268)"/><path d="M73.6966 8.35125C73.7656 10.8782 76.8131 14.9489 79.4545 15.9595 81.955 16.9289 85.3536 19.0244 85.3536 19.0244L85.4072 8.35125ZM9.93296 8.35125C9.97447 10.8782 13.022 14.9489 15.6634 15.9595 18.1532 16.9289 21.5484 19.0244 21.5484 19.0244L21.5762 8.35125ZM103.928 94.1307 103.928 8.35125 94.1988 8.35125 94.1713 36.1708C94.1713 36.1708 86.498 28.4638 79.2309 27.0643 69.8647 25.2545 64.3027 13.9506 64.1618 8.35125L57.5121 8.35125 57.6223 34.674 47.4042 27.3682 47.4042 8.35125 30.4383 8.35125 30.3939 36.1708C30.3939 36.1708 22.6808 28.754 15.4397 27.0643 5.57236 24.7621 0.401266 13.9506 0.373759 8.35125L0.373759 0.130417 115.374 0.130417 115.374 82.2175Z" fill-rule="evenodd" transform="matrix(1 0 0 -1.00134 586 95.1268)"/><path d="M40.1671 8.35125C40.2237 10.8782 43.2925 14.9489 45.8855 15.9595 48.3976 16.9289 51.7722 19.0244 51.7722 19.0244L51.8133 8.35125ZM60.2947 36.3228C60.2947 36.3228 52.6238 28.6234 45.3993 27.2223 36.0391 25.4352 30.2244 14.1102 30.3619 8.37088L12.1336 8.37088 11.7712 8.35125 11.7712 94.1307 0.349618 82.2175 0.349618 0.130417 60.3496 0.130417Z" fill-rule="evenodd" transform="matrix(1 0 0 -1.00134 508 95.1268)"/><path d="M11.8268 8.36546 11.8268 94.1309 0.31828 82.2142 0.31828 0.130639 43.263 0.130639 43.3183 36.0375 33.6644 29.4269 33.6488 8.36546Z" fill-rule="evenodd" transform="matrix(1 0 0 -1.00134 370 95.1268)"/><path d="M73.9384 8.35246C73.9659 10.8766 77.0184 14.943 79.6338 15.9522 82.1541 16.9208 85.5534 19.0137 85.5534 19.0137L85.5809 8.35246ZM10.0465 8.35246C10.117 10.8766 13.168 14.943 15.7835 15.9522 18.29 16.9208 21.703 19.0137 21.703 19.0137L21.7475 8.35246ZM94.4119 36.1413C94.4119 36.1413 86.7008 28.4426 79.4391 27.0447 70.0789 25.2369 64.4646 13.9458 64.3405 8.35246L57.7216 8.35246 57.8059 34.6461 47.6021 27.3483 47.6021 8.35246 30.5891 8.35246 30.534 36.1413C30.534 36.1413 22.7952 28.7325 15.5733 27.0447 5.68237 24.7452 0.517677 13.9458 0.491588 8.35246L0.4225 0.141028 94.4225 0.141028Z" fill-rule="evenodd" transform="matrix(1 0 0 -1.00134 819 95.1268)"/><path d="M92.0261 8.34964C92.0963 10.9033 95.1336 14.938 97.751 15.9468 100.26 16.915 103.616 19.0209 103.616 19.0209L103.674 8.34964ZM10.0619 8.34964C10.1153 10.9033 13.168 14.938 15.7592 15.9468 18.2667 16.915 21.666 19.0209 21.666 19.0209L21.6797 8.34964ZM112.434 36.141C112.434 36.141 104.786 28.4329 97.5433 27.0355 88.1975 25.2284 82.6666 13.9411 82.5259 8.34964L58.2608 8.34964C54.5835 8.86242 54.1071 8.8457 51.893 10.4648 49.694 12.0383 49.4725 13.0429 49.4725 17.1394 49.4725 20.7084 49.0786 23.5519 52.0762 25.019 54.124 26.0585 53.9422 26.0585 58.0653 26.5364L75.5764 26.5364 75.5764 35.8361 50.1262 35.8361C47.2139 35.8361 44.7891 34.3293 42.6161 32.3144 41.0568 30.8819 40.0948 29.0399 39.4977 25.4286 39.0242 22.57 39.1052 15.7406 39.8733 12.9518 41.0568 8.86242 41.8234 9.24785 43.4941 8.34964L30.5399 8.34964 30.4985 8.34964 30.4268 36.141C30.4268 36.141 22.7518 28.7228 15.5776 27.0355 5.70189 24.7368 0.560329 13.9411 0.534357 8.34964L0.4764 0.140981 112.477 0.140981Z" fill-rule="evenodd" transform="matrix(1 0 0 -1.00134 1068 95.1268)"/><path d="M32.1355 42.4394C33.1979 45.8567 35.5729 42.4103 37.4787 40.3323 37.4787 40.3323 31.044 39.0463 32.1355 42.4394M59.3635 56.6358C58.5492 56.8582 49.52 72.1807 49.52 72.1807 45.542 62.8901 47.198 59.8734 47.198 59.8734 58.2586 45.9481 47.0466 41.9655 47.0466 41.9655 47.0466 41.9655 45.5966 46.422 39.0801 50.5553 32.5214 54.7252 30.2418 50.4929 28.3784 41.1046 26.5151 31.7363 31.1152 32.1065 31.1152 32.1065L43.6378 31.9724C48.0154 29.4495 43.2081 24.9338 43.2081 24.9338 43.2081 24.9338 38.3764 17.9283 20.6193 9.22125 2.83501 0.535525 3.57969 21.9049 3.57969 21.9049L0.859584 26.9144C-1.47293 11.9394 7.14294-9.07345 30.4914 4.6141 53.884 18.2302 49.3958 34.5992 49.3958 34.5992 61.1997 42.4394 56.934 55.0803 56.934 55.0803 56.934 55.0803 60.1659 56.386 59.3635 56.6358" fill-rule="evenodd" transform="matrix(1 0 0 -1.00134 1212 287.383)"/><path d="M10.5276 4.17177 4.89135 8.18232 0.527377 4.29505 6.30786 0.182082Z" fill-rule="evenodd" transform="matrix(1 0 0 -1.00134 1270 278.371)"/><path d="M9.47267 4.21231 4.41461 8.18232 0.47267 4.28012 5.6489 0.182082Z" fill-rule="evenodd" transform="matrix(1 0 0 -1.00134 1261 278.371)"/><path d="M10.5123 4.18328 4.86775 8.18351 0.512035 4.30118 6.27553 0.183277Z" fill-rule="evenodd" transform="matrix(1 0 0 -1.00134 1191 281.375)"/><path d="M12.4782 5.17783 5.69275 10.1611 0.477942 5.27807 7.37186 0.161121Z" fill-rule="evenodd" transform="matrix(1 0 0 -1.00134 1213 205.274)"/><path d="M13.5047 5.69095 6.15444 11.1941 0.504658 5.80943 8.00131 0.194101Z" fill-rule="evenodd" transform="matrix(1 0 0 -1.00134 1152 282.376)"/><path d="M12.3961 5.71937 5.61283 11.1794 0.395823 5.81539 7.27701 0.179179Z" fill-rule="evenodd" transform="matrix(1 0 0 -1.00134 810 214.286)"/><path d="M12.3715 5.18837 5.57918 10.1754 0.37154 5.28903 7.28587 0.175185Z" fill-rule="evenodd" transform="matrix(1 0 0 -1.00134 689 275.367)"/><path d="M10.5078 4.22044 4.84287 8.18344 0.507548 4.29753 6.2879 0.183446Z" fill-rule="evenodd" transform="matrix(1 0 0 -1.00134 1181 281.375)"/><path d="M10.4901 4.7108 4.86182 9.20679 0.489867 4.82114 6.28019 0.206525Z" fill-rule="evenodd" transform="matrix(1 0 0 -1.00134 1097 284.379)"/><path d="M10.4872 4.18455 4.83591 8.18371 0.487221 4.30219 6.25397 0.183714Z" fill-rule="evenodd" transform="matrix(1 0 0 -1.00134 1087 283.378)"/><path d="M10.4832 4.17419 4.83163 8.1842 0.482936 4.24234 6.20482 0.183963Z" fill-rule="evenodd" transform="matrix(1 0 0 -1.00134 1068 283.378)"/><path d="M9.43345 4.18961 4.33973 8.18309 0.43345 4.27985 5.58896 0.182857Z" fill-rule="evenodd" transform="matrix(1 0 0 -1.00134 1059 283.378)"/><path d="M10.4823 4.18346 4.82912 8.16713 0.482305 4.29473 6.25278 0.166894Z" fill-rule="evenodd" transform="matrix(1 0 0 -1.00134 1059 206.275)"/><path d="M10.4796 4.18839 4.8199 8.16751 0.47934 4.26217 6.25287 0.16727Z" fill-rule="evenodd" transform="matrix(1 0 0 -1.00134 1049 206.275)"/><path d="M9.3773 4.20088 4.29393 8.1699 0.377073 4.29167 5.56381 0.169665Z" fill-rule="evenodd" transform="matrix(1 0 0 -1.00134 783 214.286)"/><path d="M9.37634 4.19219 4.27837 8.16907 0.376115 4.29771 5.56483 0.168835Z" fill-rule="evenodd" transform="matrix(1 0 0 -1.00134 773 214.286)"/><path d="M12.407 4.67676 5.63405 9.16359 0.407043 4.75535 7.32989 0.163591Z" fill-rule="evenodd" transform="matrix(1 0 0 -1.00134 670 217.29)"/><path d="M12.4052 5.2018 5.65617 10.18 0.404937 5.30684 7.31993 0.179741Z" fill-rule="evenodd" transform="matrix(1 0 0 -1.00134 663 207.276)"/><path d="M11.3703 4.66999 5.12876 9.16335 0.37029 4.7615 6.72196 0.163354Z" fill-rule="evenodd" transform="matrix(1 0 0 -1.00134 659 217.29)"/><path d="M10.3609 4.21852 4.71183 8.18303 0.360878 4.29995 6.11376 0.183032Z" fill-rule="evenodd" transform="matrix(1 0 0 -1.00134 513 281.375)"/><path d="M10.3599 4.18639 4.6914 8.18341 0.359652 4.29082 6.11485 0.183413Z" fill-rule="evenodd" transform="matrix(1 0 0 -1.00134 503 281.375)"/><path d="M9.301 4.21302 4.22414 8.18225 0.30077 4.28663 5.48249 0.182012Z" fill-rule="evenodd" transform="matrix(1 0 0 -1.00134 395 279.372)"/><path d="M9.29939 4.20614 4.21524 8.18263 0.299388 4.28285 5.48855 0.182628Z" fill-rule="evenodd" transform="matrix(1 0 0 -1.00134 385 279.372)"/><path d="M117.07 66.1843C117.07 66.1843 128.03 51.5433 121.31 40.6895 114.616 29.8146 103.18 33.331 100.615 41.1055 100.615 41.1055 87.8687 28.9387 75.4159 28.8412 75.4159 28.8412 61.5691 28.2851 58.8083 38.9803 56.0901 49.7225 56.5198 53.3485 56.5198 53.3485 56.5198 53.3485 51.4597 47.2544 48.6409 46.3815 48.6409 46.3815 53.9685 33.331 44.8497 24.5754 44.8497 24.5754 21.6044 2.73395 12.7211 0.768722 12.7211 0.768722 4.4922-0.745689 0.490145 1.10078 0.490145 1.10078 29.3274 16.5357 41.8795 30.5171 41.8795 30.5171 52.1981 38.3905 40.3585 44.864 40.3585 44.864 38.1832 44.6356 38.6418 51.2386 39.0621 57.8521 40.2468 54.8583 41.0571 54.1697 41.8367 53.5116 47.8474 46.6099 58.1937 62.6542 58.1937 62.6542 58.0117 38.3267 75.7094 39.0486 75.7094 39.0486 94.1852 38.4104 103.096 49.4804 103.096 49.4804 103.793 33.5594 114.685 41.433 125.577 49.2731 117.6 53.6685 115.605 55.9629 113.61 58.2696 114.434 59.8404 117.07 66.1843" fill-rule="evenodd" transform="matrix(1 0 0 -1.00134 1111 282.376)"/><path d="M5.46133 17.1788C5.46133 17.1788-4.17241 7.13891 3.35828 0.460318 3.35828 0.460318 5.15786-1.18705 8.14696 3.48591 8.14696 3.48591 9.98763 6.29847 5.03193 9.88691 5.03193 9.88691 2.84525 11.2947 5.46133 17.1788" fill-rule="evenodd" transform="matrix(1 0 0 -1.00134 1184 221.295)"/><path d="M5.44484 19.1631C5.44484 19.1631-4.17699 7.93855 3.31465 0.47555 3.31465 0.47555 5.07892-1.36136 8.14337 3.8711 8.14337 3.8711 9.93435 7.00243 4.99716 11.0029 4.99716 11.0029 2.81191 12.6004 5.44484 19.1631" fill-rule="evenodd" transform="matrix(1 0 0 -1.00134 1126 194.259)"/><path d="M4.14942 15.1912C4.14942 15.1912-3.06355 6.30808 2.57113 0.446443 2.57113 0.446443 3.90485-1.02991 6.17691 3.11496 6.17691 3.11496 7.53882 5.60441 3.80782 8.7582 3.80782 8.7582 2.22953 10.0115 4.14942 15.1912" fill-rule="evenodd" transform="matrix(1 0 0 -1.00134 923 281.375)"/><path d="M3.61529 15.1723C3.61529 15.1723-2.43964 6.3184 2.25123 0.416976 2.25123 0.416976 3.37305-1.02847 5.26471 3.10099 5.26471 3.10099 6.3996 5.60112 3.32811 8.71348 3.32811 8.71348 1.9792 9.97232 3.61529 15.1723" fill-rule="evenodd" transform="matrix(1 0 0 -1.00134 937 193.258)"/><path d="M4.1461 14.1797C4.1461 14.1797-3.08074 5.92063 2.53629 0.421744 2.53629 0.421744 3.87258-0.966468 6.149 2.90427 6.149 2.90427 7.52719 5.2161 3.80384 8.20166 3.80384 8.20166 2.16862 9.36336 4.1461 14.1797" fill-rule="evenodd" transform="matrix(1 0 0 -1.00134 816 284.379)"/><path d="M4.73465 13.1826C4.73465 13.1826-3.70785 5.51473 2.87913 0.404955 2.87913 0.404955 4.48009-0.880718 7.07311 2.72835 7.07311 2.72835 8.68654 4.8623 4.33875 7.61268 4.33875 7.61268 2.42577 8.68924 4.73465 13.1826" fill-rule="evenodd" transform="matrix(1 0 0 -1.00134 591 278.371)"/><path d="M10.0701 10.7738C10.0701 10.7738 6.37641 14.8159 9.65785 18.1289 12.95 21.454 18.249 16.3668 13.7624 8.54163 13.7624 8.54163 8.18785-1.63265 0.488816 0.442288 0.488816 0.442288 8.97332 4.05486 10.0701 10.7738" fill-rule="evenodd" transform="matrix(1 0 0 -1.00134 1236 196.262)"/><path d="M9.95325 8.57214C9.95325 8.57214 4.60869 6.81614 3.70127 7.16276 2.83384 7.52154-0.960677 11.7254 5.69804 15.7232 5.69804 15.7232 11.8657 17.8032 14.7116 12.9288 14.7116 12.9288 17.6155 7.83956 11.9069 2.91674 6.24114-2.01228 0.450099 1.18172 0.450099 1.18172 0.450099 1.18172 9.21401 1.21199 9.95325 8.57214" fill-rule="evenodd" transform="matrix(1 0 0 -1.00134 1012 190.254)"/><path d="M10.0142 8.55748C10.0142 8.55748 4.64312 6.80239 3.734 7.15513 2.82465 7.48687-0.964167 11.7075 5.70725 15.721 5.70725 15.721 11.8742 17.8064 14.7583 12.9253 14.7583 12.9253 17.6378 7.7912 11.9571 2.87984 6.30825-2.02388 0.487999 1.20941 0.487999 1.20941 0.487999 1.20941 9.24301 1.21562 10.0142 8.55748" fill-rule="evenodd" transform="matrix(1 0 0 -1.00134 1187 188.251)"/><path d="M9.96085 8.56544C9.96085 8.56544 4.64852 6.82201 3.72984 7.17504 2.82199 7.50827-0.968262 11.7219 5.68153 15.7147 5.68153 15.7147 11.8423 17.8217 14.7124 12.9186 14.7124 12.9186 17.5856 7.81263 11.8974 2.87932 6.25315-2.01917 0.4378 1.20721 0.4378 1.20721 0.4378 1.20721 9.19356 1.23607 9.96085 8.56544" fill-rule="evenodd" transform="matrix(1 0 0 -1.00134 957 193.258)"/><path d="M9.90627 9.08793C9.90627 9.08793 4.574 7.21035 3.68199 7.60576 2.77481 7.96599-1.03513 12.4378 5.63587 16.6977 5.63587 16.6977 11.7898 18.9287 14.6937 13.743 14.6937 13.743 17.5534 8.29533 11.8893 3.07445 6.22187-2.1563 0.415402 1.28674 0.415402 1.28674 0.415402 1.28674 9.16727 1.31737 9.90627 9.08793" fill-rule="evenodd" transform="matrix(1 0 0 -1.00134 848 193.258)"/><path d="M9.93384 8.57113C9.93384 8.57113 4.57547 6.81637 3.66852 7.14801 2.76133 7.52781-1.01848 11.7337 5.66454 15.7168 5.66454 15.7168 11.7771 17.8167 14.6789 12.922 14.6789 12.922 17.553 7.82464 11.872 2.92253 6.20919-2.02822 0.405659 1.19662 0.405659 1.19662 0.405659 1.19662 9.1401 1.23143 9.93384 8.57113" fill-rule="evenodd" transform="matrix(1 0 0 -1.00134 802 192.256)"/><path d="M9.88634 8.54187C9.88634 8.54187 4.55131 6.83326 3.62967 7.17808 2.73527 7.52266-1.06512 11.7143 5.61258 15.7292 5.61258 15.7292 11.7574 17.7993 14.6484 12.915 14.6484 12.915 17.5149 7.81914 11.8555 2.9 6.18361-2.01128 0.374252 1.18996 0.374252 1.18996 0.374252 1.18996 9.13133 1.25949 9.88634 8.54187" fill-rule="evenodd" transform="matrix(1 0 0 -1.00134 650 194.259)"/><path d="M11.1146 9.63124C11.1146 9.63124 5.07631 7.64747 4.04054 8.04548 3.02979 8.43119-1.2749 13.1629 6.28499 17.6741 6.28499 17.6741 13.2592 20.0055 16.5283 14.5252 16.5283 14.5252 19.7661 8.7711 13.3605 3.24336 6.9374-2.29668 0.346318 1.33601 0.346318 1.33601 0.346318 1.33601 10.2767 1.37265 11.1146 9.63124" fill-rule="evenodd" transform="matrix(1 0 0 -1.00134 489 195.26)"/><path d="M25.0283 18.4742 0.474547 0.164758 1.92101 4.83275 26.4748 23.1648Z" fill-rule="evenodd" transform="matrix(1 0 0 -1.00134 1147 197.263)"/><path d="M25.9218 18.4729 0.412435 0.165081 1.87513 4.84253 27.4127 23.1653Z" fill-rule="evenodd" transform="matrix(1 0 0 -1.00134 769 199.266)"/><path d="M33.4301 24.8141 0.364942 0.168416 2.30334 6.46866 35.3652 31.1687Z" fill-rule="evenodd" transform="matrix(1 0 0 -1.00134 603 213.284)"/><path d="M31.2004 19.669 0.323425 0.17317 2.4309 5.70087 33.3234 25.1732Z" fill-rule="evenodd" transform="matrix(1 0 0 -1.00134 381 210.28)"/><path d="M28.4995 14.1596 0.335195 0.190192 3.18627 6.20702 31.3354 20.1904Z" fill-rule="evenodd" transform="matrix(1 0 0 -1.00134 456 285.38)"/><path d="M25.3252 12.772 0.469206 0.18253 2.58744 4.60527 27.4692 17.1825Z" fill-rule="evenodd" transform="matrix(1 0 0 -1.00134 1110 270.36)"/><path d="M10.7162 8.1208 0.485528 0.185667 1.24132 3.27236 11.4855 11.1859Z" fill-rule="evenodd" transform="matrix(1 0 0 -1.00134 1219 265.354)"/><path d="M14.3701 10.9698 0.394151 0.17337 1.44288 4.35473 15.3944 15.1734Z" fill-rule="evenodd" transform="matrix(1 0 0 -1.00134 736 194.259)"/><path d="M19.4547 14.0771C19.4547 14.0771 17.6732 17.7306 15.81 14.7367 14.6949 12.9709 14.3968 11.9494 13.9064 10.404 13.5517 9.31723 13.3071 7.53787 12.8866 5.16178 12.8866 5.16178 9.04095 16.9238 3.87127 19.4087-1.28338 21.8652 0.879375 17.6162 1.04206 16.6155 1.19253 15.6195 2.86349 10.8506 5.0131 11.095 7.73362 11.3866 9.55505 7.75545 9.54026 4.48581 9.51491-0.550996 11.0518-0.239859 13.389 0.76061 14.586 1.25651 14.8306 5.40445 15.6459 8.96436 16.0811 10.7569 16.448 11.8764 17.0053 12.7252 18.5974 14.9137 18.9507 13.955 19.4547 14.0771" fill-rule="evenodd" transform="matrix(1 0 0 -1.00134 1083 194.259)"/><path d="M20.4519 14.0736C20.4519 14.0736 18.5745 17.7395 16.6136 14.7391 15.4677 12.9881 15.1397 11.9739 14.6232 10.4194 14.2354 9.33391 13.978 7.51422 13.5918 5.14814 13.5918 5.14814 9.48183 16.9459 4.04079 19.4133-1.38764 21.8776 0.918418 17.6056 1.04722 16.6122 1.20272 15.5938 2.97973 10.8675 5.25587 11.0999 8.14907 11.4111 10.0408 7.76442 10.0109 4.49741 9.97009-0.541453 11.6012-0.228869 14.0942 0.755314 15.3248 1.26323 15.5948 5.41477 16.471 8.97935 16.8994 10.7439 17.2433 11.8862 17.8727 12.7304 19.5352 14.9492 19.9214 13.9514 20.4519 14.0736" fill-rule="evenodd" transform="matrix(1 0 0 -1.00134 958 223.298)"/><path d="M17.3945 13.4323C17.3945 13.4323 15.7884 16.9148 14.1268 14.0233 13.1446 12.3574 12.8446 11.4341 12.437 9.92122 12.1384 8.8968 11.8787 7.19452 11.5382 4.94654 11.5382 4.94654 8.05263 16.1212 3.42191 18.4717-1.15333 20.8131 0.78119 16.7772 0.905081 15.8113 1.02615 14.866 2.52341 10.3828 4.48332 10.5916 6.89577 10.8667 8.54373 7.42678 8.51387 4.31099 8.49013-0.505608 9.8635-0.179987 11.9741 0.757291 13.0506 1.21112 13.252 5.17731 14.0029 8.53484 14.3717 10.2595 14.6553 11.3345 15.1868 12.1122 16.6182 14.2115 16.9318 13.2743 17.3945 13.4323" fill-rule="evenodd" transform="matrix(1 0 0 -1.00134 788 282.376)"/><path d="M17.3158 13.3924C17.3158 13.3924 15.7221 16.8756 14.0612 14.0204 13.0958 12.3374 12.8228 11.3789 12.3483 9.89969 12.0753 8.88259 11.8304 7.13637 11.4768 4.92182 11.4768 4.92182 7.99113 16.1179 3.3773 18.4637-1.25157 20.8 0.709205 16.7458 0.831635 15.811 0.968871 14.8713 2.4371 10.3473 4.39928 10.5705 6.8345 10.8219 8.48061 7.39743 8.46698 4.27166 8.4268-0.511662 9.80103-0.179605 11.8842 0.723651 12.96 1.20617 13.2049 5.15897 13.9256 8.52986 14.3075 10.224 14.6076 11.3203 15.1252 12.1 16.5399 14.2212 16.8517 13.2833 17.3158 13.3924" fill-rule="evenodd" transform="matrix(1 0 0 -1.00134 405 224.299)"/><path d="M19.3915 14.0888C19.3915 14.0888 17.6124 17.7668 15.7475 14.7413 14.6364 12.9662 14.3366 11.9711 13.8544 10.4326 13.5268 9.33031 13.2707 7.5255 12.8448 5.14468 12.8448 5.14468 8.98524 16.9431 3.80398 19.408-1.36302 21.8855 0.840523 17.6189 0.956034 16.6393 1.11357 15.6506 2.79118 10.8857 4.95589 11.1474 7.67432 11.4183 9.49865 7.7668 9.48464 4.49215 9.45515-0.535802 10.9642-0.222903 13.327 0.750368 14.5238 1.2408 14.7799 5.40927 15.5897 8.94728 16.0191 10.7504 16.3732 11.9026 16.9569 12.7185 18.538 14.9328 18.8936 13.9394 19.3915 14.0888" fill-rule="evenodd" transform="matrix(1 0 0 -1.00134 689 198.264)"/><path d="M15.3271 15.9716C15.3271 15.9716 13.3182 20.1312 11.2264 16.6997 10.0168 14.7163 9.65933 13.5795 9.10878 11.812 8.70762 10.6008 8.29602 7.52941 7.8571 4.84865 7.8571 4.84865 6.72892 17.5871 3.67477 22.9245 1.3341 27.0628 0.275275 24.4215 0.412556 23.3 0.565038 22.1692-0.454596 13.5051 1.98274 13.7604 5.03523 14.0795 5.06231 9.10398 5.03523 5.37901 4.99462-0.332194 5.95677-0.463109 8.53115 0.848675 9.61872 1.4214 10.1555 6.12979 11.0739 10.1647 11.5295 12.2026 11.914 13.5051 12.5762 14.4413 14.3497 16.9488 14.763 15.8472 15.3271 15.9716" fill-rule="evenodd" transform="matrix(1 0 0 -1.00134 446 207.276)"/><path d="M12.4437 9.21039C12.4437 9.21039 11.331 11.6011 10.1473 9.64948 9.44724 8.49733 9.27105 7.85562 8.96822 6.85349 8.7484 6.14383 8.55727 4.95004 8.29381 3.40507 8.29381 3.40507 5.89187 11.0861 2.59426 12.6744-0.662793 14.3027 0.723974 11.5162 0.808395 10.8681 0.918188 10.2418 1.94664 7.12259 3.32156 7.28503 5.0683 7.47523 6.2082 5.11856 6.19303 2.99058 6.15105-0.304902 7.15532-0.0728162 8.63861 0.564264 9.3659 0.885971 9.54494 3.58139 10.0524 5.8947 10.3265 7.02225 10.5464 7.78451 10.8897 8.34902 11.894 9.75931 12.1276 9.14854 12.4437 9.21039" fill-rule="evenodd" transform="matrix(1 0 0 -1.00134 1014 234.312)"/><path d="M7.43632 3.21939C7.43632 3.21939 4.51769 6.37681 3.67425 10.1866 3.67425 10.1866 1.02641 8.76738 0.480591 6.52393 0.290568 5.65632 0.739135 4.70209 1.25952 3.62075 2.86847 0.243254 3.80893-0.99473 5.35054 1.51515 7.04168 4.2434 7.43632 3.21939 7.43632 3.21939" fill-rule="evenodd" transform="matrix(1 0 0 -1.00134 997 276.368)"/><path d="M45.5717 21.1921C45.5717 21.1921 48.3038 15.2893 44.0803 12.2797 44.0803 12.2797 40.6515 9.95705 38.2816 12.8123 38.2816 12.8123 34.477 7.32715 29.0539 12.141 29.0539 12.141 26.8232 12.1584 23.7839 7.32715 23.7839 7.32715 17.4702-2.99245 0.440834 1.18939 0.440834 1.18939 17.9303 2.19489 25.6266 12.7051 25.6266 12.7051 28.9716 17.0147 35.0742 14.1486 36.4968 14.12 36.8452 15.2027 37.6826 16.8147 38.63 17.9934 39.1173 18.1525 42.5203 17.4701 42.9512 17.5095 44.8046 16.9375 45.5717 21.1921" fill-rule="evenodd" transform="matrix(1 0 0 -1.00134 940 283.378)"/><path d="M38.6255 17.1831C38.6255 17.1831 40.9474 12.4139 37.3748 9.97008 37.3748 9.97008 34.4726 8.06943 32.4707 10.3753 32.4707 10.3753 29.2168 5.95403 24.6601 9.83518 24.6601 9.83518 22.742 9.85904 20.1569 5.94812 20.1569 5.94812 14.8063-2.38686 0.367069 0.987062 0.367069 0.987062 15.2087 1.80001 21.7274 10.2987 21.7274 10.2987 24.5627 13.8092 29.7316 11.4509 30.929 11.4509 31.2186 12.3539 31.9695 13.6395 32.7344 14.5758 33.1792 14.7183 36.0402 14.1782 36.4303 14.2006 37.9873 13.7478 38.6255 17.1831" fill-rule="evenodd" transform="matrix(1 0 0 -1.00134 601 283.378)"/><path d="M13.4331 58.3838C13.4331 58.3838 12.5816 64.8677 3.95896 82.175 3.95896 82.175-0.327733 77.4398 0.55175 75.198 0.55175 75.198 2.24274 69.7201 3.39249 67.1661 3.39249 67.1661 7.37224 28.4515 7.31571 22.4927 7.31571 22.4927 7.46568 4.40315 5.43644 0.174976 5.43644 0.174976 13.4744 4.88254 10.7526 33.3738 8.0471 61.8344 8.26504 62.0976 8.26504 62.0976 8.26504 62.0976 11.4022 59.0856 13.4331 58.3838" fill-rule="evenodd" transform="matrix(1 0 0 -1.00134 993 258.344)"/><path d="M4.69625 23.1667C4.69625 23.1667 11.405 13.7952 6.82072 0.166434 6.82072 0.166434 5.07087 11.6725 1.45845 13.732-2.11128 15.7927 4.69625 23.1667 4.69625 23.1667" fill-rule="evenodd" transform="matrix(1 0 0 -1.00134 899 199.266)"/><path d="M3.05007 14.1628C3.05007 14.1628 7.24227 8.47148 4.34371 0.162535 4.34371 0.162535 3.27369 7.15527 1.02438 8.41785-1.23901 9.68651 3.05007 14.1628 3.05007 14.1628" fill-rule="evenodd" transform="matrix(1 0 0 -1.00134 600 191.255)"/><path d="M9.09073 11.11 10.4914 13.3421C10.4914 13.3421 14.9807 7.6865 10.2546 2.0281 5.0227-4.27578 0.900914 7.5015 0.900914 7.5015 0.900914 7.5015-2.38315 20.3378 8.17892 32.1724 8.17892 32.1724 2.6105 23.8379 3.85739 13.6355 4.21088 10.925 5.24714 9.91878 6.83082 8.75006 6.83082 8.75006 12.2871 5.27988 9.09073 11.11" fill-rule="evenodd" transform="matrix(1 0 0 -1.00134 852 247.33)"/><path d="M6.9583 6.99317 7.99935 8.40748C7.99935 8.40748 11.3608 4.90469 7.81264 1.3466 3.92291-2.58157 0.809671 4.7581 0.809671 4.7581 0.809671 4.7581-1.67177 12.7625 6.21604 20.1902 6.21604 20.1902 2.04945 14.9896 3.00758 8.61856 3.2879 6.93016 4.09115 6.28279 5.23946 5.55033 5.23946 5.55033 9.36164 3.38149 6.9583 6.99317" fill-rule="evenodd" transform="matrix(1 0 0 -1.00134 758 285.38)"/><path d="M10.2437 8.32106 11.3407 6.40751C11.3407 6.40751 11.6176 1.84022 9.10434 0.744644 4.48437-1.26434 2.20733 2.37896 0.737613 5.05525-0.719646 7.73602 2.04131 20.3049 7.09177 26.1648 7.09177 26.1648 2.72287 15.6272 3.65237 9.04949 3.90032 7.47018 5.10963 2.44031 8.32696 3.7613 8.32696 3.7613 10.507 4.64627 10.2437 8.32106" fill-rule="evenodd" transform="matrix(1 0 0 -1.00134 544 213.284)"/><path d="M4.09568 11.1857C4.09568 11.1857 3.69759 5.89722 2.80365 5.69342 1.87042 5.47875 0.400521 7.54865 0.400521 7.54865 0.400521 7.54865-0.186689 0.696163 2.76591 0.205492 5.70571-0.291215 6.12742 8.62513 4.09568 11.1857" fill-rule="evenodd" transform="matrix(1 0 0 -1.00134 710 276.368)"/><path d="M3.72722 16.1835C3.72722 16.1835-1.98566 13.2971 3.32601 11.2128 3.32601 11.2128-1.8691 2.64545 1.46856 0.718453 5.47932-1.57921 8.35011 4.26805 8.35011 4.26805 8.35011 4.26805 3.40289 0.374959 2.81923 3.198 2.18155 6.13903 3.61067 11.3158 5.66289 12.4433 5.66289 12.4433-0.230864 11.6743 3.72722 16.1835" fill-rule="evenodd" transform="matrix(1 0 0 -1.00134 667 278.371)"/><path d="M1.14739 17.2604C1.14739 17.2604 0.843074 21.8333 2.69885 21.0919 5.0791 20.1303 5.97205 17.6614 4.86421 16.8046 3.7689 15.9658 2.18953 16.1529 1.91049 15.6529 1.60639 15.1349 1.51564 11.2441 2.18953 8.32995 2.87748 5.43136 2.83969 2.71484 1.59233 0.172982 1.59233 0.172982 1.75844 6.45083 0.728819 12.0841-0.355291 17.71 1.14739 17.2604 1.14739 17.2604" fill-rule="evenodd" transform="matrix(1 0 0 -1.00134 631 228.304)"/><path d="M2.66177 18.2664C2.66177 18.2664 1.33401 25.3829 4.43204 24.0112 8.40211 22.2212 10.6563 18.16 8.51095 16.5847 6.75249 15.2977 4.04394 16.2267 3.50719 15.7142 2.97044 15.2066 2.35287 13.5941 3.36015 10.2089 4.51447 6.38211 3.9233 2.72815 1.44122 0.186623 1.44122 0.186623 2.51473 5.85286 0.812077 12.3844-0.918594 19.1199 2.66177 18.2664 2.66177 18.2664" fill-rule="evenodd" transform="matrix(1 0 0 -1.00134 558 282.376)"/><path d="M129.051 66.6247C129.051 66.6247 137.866 58.2972 130.593 45.53 123.292 32.8025 117.781 43.3958 117.781 43.3958 117.781 43.3958 111.313 35.6479 107.941 38.6542 107.941 38.6542 106.164 40.0462 101.987 44.2299 101.987 44.2299 97.976 42.1788 96.1715 40.1643 96.1715 40.1643 85.8702 30.6195 75.3502 39.4313 75.3502 39.4313 73.3659 41.7524 70.6029 46.1386 70.6029 46.1386 61.6924 31.7875 55.3475 40.0875 55.3475 40.0875 50.9912 45.3658 47.0334 52.0807 47.0334 52.0807 44.523 58.2757 38.429 51.0029 38.429 51.0029 28.5875 43.5568 33.3636 40.2898 33.3636 40.2898 41.7034 34.7249 49.5197 32.5939 49.5197 32.5939 64.0797 26.9493 42.9254 9.07066 42.9254 9.07066 4.2832-20.3195 0.468695 27.797 0.468695 27.797 0.966145 40.1428 6.80902 45.7813L6.16996 40.3113C6.16996 40.3113 1.67374 29.8667 6.01948 20.4399 10.3482 10.9994 14.2756 1.79187 38.359 13.2498 38.359 13.2498 45.7874 17.9578 47.4094 21.8518 49.0465 25.7397 40.6505 26.0263 40.6505 26.0263 40.6505 26.0263 25.6752 28.4655 27.562 38.7599 29.4212 49.0314 30.0588 51.5411 40.3174 61.5212 40.3174 61.5212 48.8124 69.8948 53.2659 52.6893 53.2659 52.6893 55.988 43.2901 63.0101 46.6399 63.0101 46.6399 71.0318 48.8566 66.7031 59.45 66.7031 59.45 61.8019 72.987 62.2188 74.819 62.6358 76.6174 65.6607 81.1842 65.6607 81.1842 65.6607 81.1842 71.4641 53.6842 80.8202 46.6966 80.8202 46.6966 92.7844 41.1102 104.248 53.3745 104.248 53.3745 105.179 45.996 109.371 45.7461 109.371 45.7461 116.005 45.4518 120.877 57.9968 120.877 57.9968 118.587 45.4103 123.403 47.2147 123.403 47.2147 133.631 49.6478 128.262 53.5707 128.262 53.5707 124.61 55.8566 126.151 59.7858 126.151 59.7858 128.274 63.7013 129.051 66.6247" fill-rule="evenodd" transform="matrix(1 0 0 -1.00134 1009 289.386)"/><path d="M98.5119 50.6484C98.5119 50.6484 106.617 40.2402 99.5371 27.9517 99.5371 27.9517 93.0801 17.6356 87.8018 30.0559 87.8018 30.0559 81.4557 22.0265 77.4229 24.8355 77.4229 24.8355 73.987 25.8937 71.7693 30.3907 71.7693 30.3907 53.7015 18.5155 46.8435 20.8208 46.8435 20.8208 41.2992 20.7303 34.2209 34.1889 34.2209 34.1889 33.1258 9.24991 17.0661 1.66887 17.0661 1.66887 9.11131-1.67782 0.437984 1.65509 0.437984 1.65509 27.9432 11.2095 31.0342 28.3863 34.1649 45.5356 28.373 77.0511 27.6683 79.1384 26.9452 81.1902 27.0835 81.8984 28.607 86.34 30.1594 90.823 32.4194 93.1775 32.4194 93.1775 32.4194 93.1775 34.3728 56.1897 36.2563 47.7411 36.2563 47.7411 41.9113 20.701 62.3473 31.005L75.2478 38.7887C74.8739 35.8752 73.2942 28.4509 79.2806 30.4951 84.6699 32.3382 90.5586 40.8545 90.5586 40.8545 90.5586 40.8545 89.5896 31.2447 92.6093 31.7499 95.5896 32.2121 101.311 35.2439 96.4067 40.6378 96.4067 40.6378 94.6189 42.3841 95.8508 44.9459 97.043 47.5031 98.5119 50.6484 98.5119 50.6484" fill-rule="evenodd" transform="matrix(1 0 0 -1.00134 893 278.371)"/><path d="M2.3301 77.1777C2.3301 77.1777 12.7159 59.8995 14.2857 58.0794 15.8005 56.3445 8.79315 59.1441 8.79315 59.1441 8.79315 59.1441 12.9095 45.9217 25.4197 33.9684 37.9604 22.0393 43.6873 9.015 43.4099 0.177738 43.4099 0.177738 30.9393 21.6507 21.599 28.7929 21.599 28.7929 11.0335 36.8288 4.80516 61.4713L1.44165 65.8183C1.44165 65.8183-1.36845 67.1817 2.3301 77.1777" fill-rule="evenodd" transform="matrix(1 0 0 -1.00134 877 253.338)"/><path d="M49.1622 38.6794C49.1622 38.6794 48.2748 43.2507 49.8141 44.06 50.7136 44.5419 56.0795 41.4226 56.3561 39.4675 56.7163 36.9706 53.9444 37.9468 49.1622 38.6794M58.7541 45.4904C57.0217 47.7577 55.8971 48.0162 53.5844 49.2584 44.3238 54.0731 45.5727 38.5479 45.5727 38.5479 45.5727 38.5479 45.8068 37.6285 44.5044 37.1864 37.9047 34.9205 22.6157 14.9498 22.6157 14.9498 11.8871 2.19217 5.49557 9.29534 5.49557 9.29534-4.29087 23.6164 15.1286 37.1084 15.1286 37.1084-8.00787 25.8485 3.07038 3.14214 3.07038 3.14214 12.9935-6.89983 29.103 11.5444 31.8474 15.271 34.5782 19.0436 40.1796 28.2214 48.2064 32.3443 49.2869 32.944 49.1332 33.091 51.7819 33.5362 52.0464 33.6783 57.4366 33.224 59.6127 34.9894 63.4104 37.9957 60.2782 43.4741 58.7541 45.4904" fill-rule="evenodd" transform="matrix(1 0 0 -1.00134 845 286.382)"/><path d="M8.86971 65.3962C8.86971 65.3962 10.4003 71.2507 3.50187 83.178 3.50187 83.178-0.097896 78.4216 0.466137 76.3316 1.01826 74.2401 1.59754 73.2375 1.59754 73.2375 1.59754 73.2375 0.27106 50.1607 2.50814 37.2138 4.68757 24.9188 6.5102 7.57659 4.21882 0.178002 4.21882 0.178002 13.2407 9.38809 7.48869 40.4185 7.48869 40.4185 4.99174 63.2139 5.76443 68.5317 5.76443 68.5317 7.25574 67.2968 8.86971 65.3962" fill-rule="evenodd" transform="matrix(1 0 0 -1.00134 828 260.347)"/><path d="M8.85831 65.4061C8.85831 65.4061 10.3628 71.2266 3.4526 83.178 3.4526 83.178-0.175023 78.3817 0.458632 76.3073 1.01061 74.2559 1.58973 73.2116 1.58973 73.2116 1.58973 73.2116 0.237889 50.1361 2.51509 37.2253 4.69253 24.8925 6.47228 7.55122 4.19508 0.17775 4.19508 0.17775 13.1906 9.35197 7.49432 40.4299 7.49432 40.4299 4.95566 63.1748 5.74195 68.5202 5.74195 68.5202 7.21762 67.2914 8.85831 65.4061" fill-rule="evenodd" transform="matrix(1 0 0 -1.00134 723 259.346)"/><path d="M69.1436 28.6294C69.1436 28.6294 76.982 18.2539 71.4097 6.8711 65.8639-4.49024 55.9709 3.13719 55.9709 3.13719 55.9709 3.13719 53.032 7.00587 52.4381 11.1104 52.4381 11.1104 44.9098-0.655068 28.1936 0.217472 11.4604 1.0565 6.04264 9.83976 6.32324 24.237 6.59168 38.6297 3.42618 62.135 0.876041 69.0336 0.876041 69.0336-1.24652 71.4357 3.5666 80.1714 3.5666 80.1714 9.99648 68.2512 9.74334 34.3355 9.74334 34.3355 9.39157 9.61626 23.8433 8.64415 26.8993 8.42209 29.98 8.39292 32.527 8.56892 42.6036 9.21049 48.6956 12.0613 56.3365 19.6518 56.3365 19.6518 51.2149 6.84361 62.6012 7.24167 73.9985 7.64575 67.7073 18.0229 65.8918 19.2031 64.062 20.425 65.9195 23.4899 69.1436 28.6294" fill-rule="evenodd" transform="matrix(1 0 0 -1.00134 754 257.343)"/><path d="M38.3336 66.1846C38.3336 66.1846 46.9764 55.2436 47.5179 49.4291L46.0429 49.649C46.0429 49.649 53.8925 37.333 40.8812 22.1878 40.8812 22.1878 27.9824 8.37058 18.1727 1.85716 18.1727 1.85716 10.4497-1.12533 0.389873 0.874617 0.389873 0.874617 38.1124 16.4339 44.7357 35.9077 44.7357 35.9077 47.7422 38.9294 38.6555 48.3632 38.6555 48.3632 35.0801 52.1112 36.1525 57.2011 37.2491 62.2788 37.0951 61.7723 38.3336 66.1846" fill-rule="evenodd" transform="matrix(1 0 0 -1.00134 707 287.383)"/><path d="M88.8365 24.6956C92.341 25.874 95.4757 25.8603 96.5507 26.019 97.5981 26.193 100.763 25.9762 98.7817 23.7688 96.803 21.5632 94.835 20.5677 94.835 20.5677 91.7248 24.6956 88.8365 24.6956 88.8365 24.6956M118.798 40.0005C112.873 30.6627 116.776 28.5316 116.776 28.5316 129.329 14.2541 113.291 8.25334 107.586 7.30232 101.826 6.29169 97.0674 16.9605 97.0674 16.9605 97.0674 16.9605 102.841 21.3341 103.457 21.5281 104.043 21.6822 114.392 32.1679 97.7922 32.1679 81.208 32.1251 77.8594 26.8967 74.9434 22.6423 72.0718 18.4017 77.0383 18.8551 77.0383 18.8551 86.5368 20.1434 88.5032 16.1944 88.5032 16.1944L88.5032 15.6754C75.2386-2.50711 66.0336 16.3898 66.0336 16.3898 57.6085 2.29075 53.0182 14.9777 53.0182 14.9777 38.639-1.14237 36.9493 16.6829 36.9493 16.6829 30.2688 10.7645 21.8178 10.2837 21.8178 10.2837 21.8178 10.2837 10.0439 11.2941 7.74262 21.0137 5.38473 30.8091 6.52852 43.7726 6.52852 43.7726 8.07589 67.5176 6.7946 79.1709 6.7946 79.1709 2.84647 73.3978-0.347712 68.8091 0.517716 65.4017 1.41084 61.9594 0.991848 46.2316 0.991848 46.2316-0.598383 18.9039 8.36942 7.37252 8.36942 7.37252 21.2459-8.29108 33.2549 8.50215 33.2549 8.50215 34.4402 5.93302 36.7138 4.01729 36.7138 4.01729 42.5014-0.131738 50.2996 7.63047 50.2996 7.63047 50.2996 7.63047 52.0702 3.69059 56.1298 3.32879 60.2017 2.94415 64.0107 8.7036 64.0107 8.7036 68.3349 1.3169 75.4067 1.76716 75.4067 1.76716 82.0445 1.53206 92.2418 13.4238 92.2418 13.4238 99.5934-8.53388 116.416 3.41725 116.416 3.41725 135.075 19.8367 118.798 40.0005 118.798 40.0005" fill-rule="evenodd" transform="matrix(1 0 0 -1.00134 584 259.346)"/><path d="M193.804 12.4136C191.063 12.3357 185.381 15.3369 185.381 15.3369 185.381 15.3369 183.598 15.702 188.446 20.9957 188.446 20.9957 192.065 20.5284 195.602 14.1944 195.602 14.1944 196.492 12.4687 193.804 12.4136M193.722 28.8338C191.214 30.1901 186.885 25.9197 186.885 25.9197 182.847 21.9013 182.429 20.1053 180.424 17.0461 178.475 13.9869 173.029 10.9505 168.658 11.8424 164.299 12.7482 162.058 14.9978 162.085 19.0941 162.14 23.1965 160.609 40.82 159.286 48.5254 157.991 56.2368 157.726 80.1715 157.726 80.1715 151.516 74.586 152.853 70.4897 152.853 70.4897 152.169 58.8838 155.931 39.6915 155.931 39.6915 161.456 16.5374 153.174 14.3763 153.174 14.3763 146.853 12.4136 143.162 23.7126 143.162 23.7126 139.359 37.9504 133.468 53.0525 133.468 53.0525 125.853 40.9805 130.309 36.139 130.309 36.139 136.993 23.4485 134.958 10.1226 126.662 8.97871 118.376 7.8913 123.317 25.7883 123.317 25.7883 122.566 24.7712 120.365 12.6428 107.556 10.0447 94.7447 7.4117 104.34 25.1041 104.34 25.1041 99.0203 18.1595 92.3497 10.4954 80.4859 11.3185 68.6098 12.1204 78.6616 28.4276 78.6616 28.4276 62.0902 8.56789 45.7157 9.41092 45.7157 9.41092 25.537 9.11147 33.4747 24.7712 33.4747 24.7712 26.0531 16.635 16.6255 8.97871 10.0693 11.6531 3.45346 14.2724 5.76603 42.1153 5.76603 42.1153 9.24641 63.3007 5.63934 83.1681 5.63934 83.1681-0.738242 75.8873 0.432464 71.9194 0.432464 71.9194 3.3436 59.9437 1.86592 45.7594 1.86592 45.7594-2.01905 7.3001 3.69001 4.52038 3.69001 4.52038 11.1118-7.51777 25.4134 12.1906 25.4134 12.1906 26.8757 6.37313 31.8064 2.70901 31.8064 2.70901 44.5464-7.14809 68.7885 14.8513 68.7885 14.8513 70.0416 4.39988 75.9047 2.47233 75.9047 2.47233 85.0682 1.02294 94.0074 9.99588 94.0074 9.99588 95.4683 6.205 98.921 3.09865 98.921 3.09865 105.341-2.78621 114.742 7.91415 114.742 7.91415 116.05 0.55705 121.606 0.486818 121.606 0.486818 131.853-0.974838 138.581 14.497 138.581 14.497 142.325 10.2311 141.115 9.88451 146.781 4.69452 152.462-0.481526 158.813 7.32776 159.594 7.48795 160.345 7.63322 162.42 3.89286 166.79 2.1089 171.136 0.366075 178.726 7.8088 179.463 8.97871 180.215 10.1914 181.342 9.54995 181.342 9.54995 182.33 9.3253 192.525 2.15171 197.565 7.58584 202.62 13.0048 195.505 27.8212 193.722 28.8338" fill-rule="evenodd" transform="matrix(1 0 0 -1.00134 370 257.343)"/><path d="M0.324844 7.10243 4.08564 7.10243 4.08564 34.2064 0.324844 34.2064 0.324844 41.1523 14.3248 41.1523 14.3248 34.2064 10.5498 34.2064 10.5498 7.10243 14.3248 7.10243 14.3248 0.152054 0.324844 0.152054Z" fill-rule="evenodd" transform="matrix(1 0 0 -1.00134 370 164.219)"/><path d="M0.323018 7.10243 3.59296 7.10243 3.59296 34.2064 0.323018 34.2064 0.323018 41.1523 10.504 41.1523 19.4599 15.5557 19.5455 15.5557 19.5455 34.2064 16.3753 34.2064 16.3753 41.1523 27.323 41.1523 27.323 34.2064 23.8972 34.2064 23.8972 0.152054 18.4373 0.152054 8.0163 30.2964 7.92916 30.2964 7.92916 7.10243 10.9856 7.10243 10.9856 0.152054 0.323018 0.152054Z" fill-rule="evenodd" transform="matrix(1 0 0 -1.00134 385 164.219)"/><path d="M22.3298 24.6796 18.1101 24.6796 18.1101 34.2092 14.4701 34.2092 14.4701 7.10526 18.1101 7.10526 18.1101 0.154882 4.51893 0.154882 4.51893 7.10526 8.16184 7.10526 8.16184 34.2092 4.51893 34.2092 4.51893 24.6796 0.329845 24.6796 0.329845 41.1551 22.3298 41.1551Z" fill-rule="evenodd" transform="matrix(1 0 0 -1.00134 413 164.219)"/><path d="M0.32701 7.10243 3.13723 7.10243 3.13723 34.2064 0.32701 34.2064 0.32701 41.1523 21.327 41.1523 21.327 28.1721 16.7909 28.1721 16.7909 34.2064 9.34393 34.2064 9.34393 24.801 15.3445 24.801 15.3445 17.8551 9.34393 17.8551 9.34393 7.10243 16.7909 7.10243 16.7909 13.1935 21.327 13.1935 21.327 0.152054 0.32701 0.152054Z" fill-rule="evenodd" transform="matrix(1 0 0 -1.00134 437 164.219)"/><path d="M12.3816 24.727C15.1668 24.727 15.9904 27.39 15.9904 29.5678 15.9904 31.2474 15.403 34.2095 13.0519 34.2095L9.87691 34.2095 9.87691 24.727ZM25.3357 0.154871 18.0334 0.154871 12.6193 18.1529 9.87691 18.1529 9.87691 7.10614 12.8848 7.10614 12.8848 0.154871 0.335494 0.154871 0.335494 7.10614 3.61001 7.10614 3.61001 34.2095 0.335494 34.2095 0.335494 41.1549 15.2774 41.1549C19.9384 41.1549 22.4967 35.9041 22.4967 29.6831 22.4967 24.9785 21.153 21.669 18.3556 19.4836L22.259 7.10614 25.3357 7.10614Z" fill-rule="evenodd" transform="matrix(1 0 0 -1.00134 460 164.219)"/><path d="M0.344258 7.10243 3.62624 7.10243 3.62624 34.2064 0.344258 34.2064 0.344258 41.1523 10.5425 41.1523 19.4766 15.5557 19.5467 15.5557 19.5467 34.2064 16.3937 34.2064 16.3937 41.1523 27.3443 41.1523 27.3443 34.2064 23.8799 34.2064 23.8799 0.152054 18.4396 0.152054 8.0295 30.2964 7.92824 30.2964 7.92824 7.10243 11.0111 7.10243 11.0111 0.152054 0.344258 0.152054Z" fill-rule="evenodd" transform="matrix(1 0 0 -1.00134 486 164.219)"/><path d="M12.0104 32.5248 11.9569 32.5248 9.84287 20.154 13.8913 20.154ZM24.3355 0.156061 13.0244 0.156061 13.0244 7.10644 15.9373 7.10644 14.8548 14.0957 8.84081 14.0957 7.55493 7.10644 10.6682 7.10644 10.6682 0.156061 0.335499 0.156061 0.335499 7.10644 3.24815 7.10644 7.79714 34.2104 4.68226 34.2104 4.68226 41.1563 19.8386 41.1563 19.8386 34.2104 16.7226 34.2104 21.5846 7.10644 24.3355 7.10644Z" fill-rule="evenodd" transform="matrix(1 0 0 -1.00134 513 164.219)"/><path d="M22.3562 24.6796 18.1515 24.6796 18.1515 34.2092 14.5098 34.2092 14.5098 7.10526 18.1515 7.10526 18.1515 0.154882 4.56089 0.154882 4.56089 7.10526 8.20258 7.10526 8.20258 34.2092 4.56089 34.2092 4.56089 24.6796 0.356179 24.6796 0.356179 41.1551 22.3562 41.1551Z" fill-rule="evenodd" transform="matrix(1 0 0 -1.00134 537 164.219)"/><path d="M0.339978 7.10243 3.83981 7.10243 3.83981 34.2064 0.339978 34.2064 0.339978 41.1523 13.34 41.1523 13.34 34.2064 9.83714 34.2064 9.83714 7.10243 13.34 7.10243 13.34 0.152054 0.339978 0.152054Z" fill-rule="evenodd" transform="matrix(1 0 0 -1.00134 561 164.219)"/><path d="M7.1412 21.4483C7.1412 13.3669 9.85769 7.79179 13.8338 7.79179 17.1755 7.79179 20.57 12.0955 20.57 21.6907 20.57 30.2995 17.6285 35.5148 13.8338 35.5148 10.6519 35.5148 7.1412 31.5359 7.1412 21.4483M27.3633 21.6221C27.3633 10.9352 23.0194 0.157012 13.8338 0.157012 4.73523 0.157012 0.36329 10.8086 0.36329 21.6221 0.36329 32.7539 4.89037 43.1573 13.8338 43.1573 22.8924 43.1573 27.3633 32.6914 27.3633 21.6221" fill-rule="evenodd" transform="matrix(1 0 0 -1.00134 577 165.22)"/><path d="M0.356045 7.10243 3.51512 7.10243 3.51512 34.2064 0.356045 34.2064 0.356045 41.1523 10.1777 41.1523 18.7925 15.5557 18.8465 15.5557 18.8465 34.2064 15.8119 34.2064 15.8119 41.1523 26.3563 41.1523 26.3563 34.2064 23.0308 34.2064 23.0308 0.152054 17.7789 0.152054 7.75483 30.2964 7.68754 30.2964 7.68754 7.10243 10.6275 7.10243 10.6275 0.152054 0.356045 0.152054Z" fill-rule="evenodd" transform="matrix(1 0 0 -1.00134 606 164.219)"/><path d="M12.0282 32.5248 11.9599 32.5248 9.87392 20.154 13.9253 20.154ZM24.3603 0.156061 13.0592 0.156061 13.0592 7.10644 15.9725 7.10644 14.8745 14.0957 8.85784 14.0957 7.58161 7.10644 10.6867 7.10644 10.6867 0.156061 0.36006 0.156061 0.36006 7.10644 3.27329 7.10644 7.82539 34.2104 4.69505 34.2104 4.69505 41.1563 19.8737 41.1563 19.8737 34.2104 16.7583 34.2104 21.6223 7.10644 24.3603 7.10644Z" fill-rule="evenodd" transform="matrix(1 0 0 -1.00134 633 164.219)"/><path d="M0.384268 7.10243 3.89587 7.10243 3.89587 34.2064 0.384268 34.2064 0.384268 41.1523 13.9014 41.1523 13.9014 34.2064 10.3035 34.2064 10.3035 7.10243 17.5687 7.10243 17.5687 19.7816 22.3845 19.7816 22.3845 0.152054 0.384268 0.152054Z" fill-rule="evenodd" transform="matrix(1 0 0 -1.00134 658 164.219)"/><path d="M0.366328 7.10243 3.8731 7.10243 3.8731 34.2064 0.366328 34.2064 0.366328 41.1523 13.3663 41.1523 13.3663 34.2064 9.88737 34.2064 9.88737 7.10243 13.3663 7.10243 13.3663 0.152054 0.366328 0.152054Z" fill-rule="evenodd" transform="matrix(1 0 0 -1.00134 690 164.219)"/><path d="M0.63011 15.0004 4.64798 15.0004C4.57959 10.4962 6.24083 7.40467 8.30453 7.40467 9.74553 7.40467 10.9376 9.37684 10.9376 11.9318 10.9376 19.6043 0.381174 18.5262 0.381174 31.7256 0.381174 39.8814 3.86005 43.157 6.76788 43.157 8.65079 43.157 10.1631 41.8825 11.132 39.274L11.214 39.274 11.214 42.7215 15.203 42.7215 15.203 29.9851 11.214 29.9851C10.8814 33.8098 9.60588 36.1807 7.7806 36.1807 6.39436 36.1807 5.43759 34.7469 5.43759 32.761 5.43759 25.9685 16.3814 27.5069 16.3814 12.6633 16.3814 2.63511 12.0187 0.156981 9.4966 0.156981 7.39034 0.156981 5.76879 1.52344 4.73144 4.24235L4.64798 4.24235 4.64798 0.718249 0.63011 0.718249Z" fill-rule="evenodd" transform="matrix(1 0 0 -1.00134 705 165.22)"/><path d="M0.398627 7.10243 3.89689 7.10243 3.89689 34.2064 0.398627 34.2064 0.398627 41.1523 13.9071 41.1523 13.9071 34.2064 10.3225 34.2064 10.3225 7.10243 17.5658 7.10243 17.5658 19.7816 22.3989 19.7816 22.3989 0.152054 0.398627 0.152054Z" fill-rule="evenodd" transform="matrix(1 0 0 -1.00134 723 164.219)"/><path d="M12.5463 32.5248 12.4751 32.5248 10.3013 20.154 14.5236 20.154ZM25.3994 0.156061 13.6348 0.156061 13.6348 7.10644 16.6572 7.10644 15.5409 14.0957 9.24205 14.0957 7.91214 7.10644 11.162 7.10644 11.162 0.156061 0.399167 0.156061 0.399167 7.10644 3.42181 7.10644 8.17988 34.2104 4.919 34.2104 4.919 41.1563 20.7233 41.1563 20.7233 34.2104 17.4763 34.2104 22.5752 7.10644 25.3994 7.10644Z" fill-rule="evenodd" transform="matrix(1 0 0 -1.00134 745 164.219)"/><path d="M0.399521 7.10243 3.55049 7.10243 3.55049 34.2064 0.399521 34.2064 0.399521 41.1523 12.455 41.1523 17.7331 17.1245 23.2043 41.1523 35.3596 41.1523 35.3596 34.2064 32.264 34.2064 32.264 7.10243 35.3995 7.10243 35.3995 0.152054 23.0265 0.152054 23.0265 7.10243 26.1864 7.10243 26.1864 34.2064 25.6126 34.2064 18.0969 0.152054 15.4924 0.152054 7.97519 34.2064 7.41494 34.2064 7.41494 7.10243 10.578 7.10243 10.578 0.152054 0.399521 0.152054Z" fill-rule="evenodd" transform="matrix(1 0 0 -1.00134 771 164.219)"/><path d="M0.419798 7.10243 4.17678 7.10243 4.17678 34.2064 0.419798 34.2064 0.419798 41.1523 14.4198 41.1523 14.4198 34.2064 10.6344 34.2064 10.6344 7.10243 14.4198 7.10243 14.4198 0.152054 0.419798 0.152054Z" fill-rule="evenodd" transform="matrix(1 0 0 -1.00134 807 164.219)"/><path d="M24.4328 42.4713 24.4328 27.7919 20.3165 27.7919C19.8943 29.6854 19.1626 32.0132 18.4894 32.9447 16.8025 35.2238 15.9027 35.7256 14.3422 35.7256 10.001 35.7256 7.17706 30.0573 7.17706 21.5064 7.17706 13.3701 9.93309 7.79492 13.9633 7.79492 17.3093 7.79492 19.7665 11.7862 20.6522 18.6693L25.4158 14.7484C23.661 3.4838 18.249 0.160373 13.5011 0.160373 3.17161 0.160373 0.415587 12.5072 0.415587 21.6254 0.415587 34.3641 5.57488 43.1604 13.0914 43.1604 16.0584 43.1604 18.3492 41.9362 20.3165 39.2288L20.3165 42.4713Z" fill-rule="evenodd" transform="matrix(1 0 0 -1.00134 823 165.22)"/><path d="M0.420683 42.1597 11.6905 42.1597 11.6905 35.1266 9.6034 35.1266 9.6034 14.0424C9.6034 9.94818 10.3053 7.18352 12.7183 7.18352 14.7497 7.18352 16.0746 8.96759 16.0746 13.6665L16.0746 35.1266 14.071 35.1266 14.071 42.1597 23.4207 42.1597 23.4207 35.1266 20.3907 35.1266 20.3907 11.8838C20.3907 2.23306 15.4701 0.159453 12.0428 0.159453 7.30303 0.159453 3.27125 3.27739 3.27125 13.433L3.27125 35.1266 0.420683 35.1266Z" fill-rule="evenodd" transform="matrix(1 0 0 -1.00134 858 165.22)"/><path d="M0.429323 7.10243 3.69586 7.10243 3.69586 34.2064 0.429323 34.2064 0.429323 41.1523 10.6345 41.1523 19.5685 15.5557 19.6279 15.5557 19.6279 34.2064 16.4872 34.2064 16.4872 41.1523 27.4293 41.1523 27.4293 34.2064 23.9773 34.2064 23.9773 0.152054 18.5203 0.152054 8.12966 30.2964 8.033 30.2964 8.033 7.10243 11.0878 7.10243 11.0878 0.152054 0.429323 0.152054Z" fill-rule="evenodd" transform="matrix(1 0 0 -1.00134 882 164.219)"/><path d="M0.443599 7.10243 4.19455 7.10243 4.19455 34.2064 0.443599 34.2064 0.443599 41.1523 14.4436 41.1523 14.4436 34.2064 10.6749 34.2064 10.6749 7.10243 14.4436 7.10243 14.4436 0.152054 0.443599 0.152054Z" fill-rule="evenodd" transform="matrix(1 0 0 -1.00134 910 164.219)"/><path d="M3.16687 35.0957 0.419714 35.0957 0.419714 42.1592 11.9508 42.1592 11.9508 35.0957 9.28582 35.0957 13.1614 14.2036 13.2567 14.2036 17.159 35.0957 14.5743 35.0957 14.5743 42.1592 24.4197 42.1592 24.4197 35.0957 21.6592 35.0957 14.8874 0.158942 10.1696 0.158942Z" fill-rule="evenodd" transform="matrix(1 0 0 -1.00134 925 165.22)"/><path d="M0.434949 7.10243 3.24889 7.10243 3.24889 34.2064 0.434949 34.2064 0.434949 41.1523 21.4352 41.1523 21.4352 28.1721 16.9058 28.1721 16.9058 34.2064 9.47698 34.2064 9.47698 24.801 15.4712 24.801 15.4712 17.8551 9.47698 17.8551 9.47698 7.10243 16.9058 7.10243 16.9058 13.1935 21.4352 13.1935 21.4352 0.152054 0.434949 0.152054Z" fill-rule="evenodd" transform="matrix(1 0 0 -1.00134 950 164.219)"/><path d="M12.4829 24.727C15.2895 24.727 16.0994 27.39 16.0994 29.5678 16.0994 31.2474 15.4855 34.2095 13.1658 34.2095L9.96711 34.2095 9.96711 24.727ZM25.443 0.154871 18.1252 0.154871 12.7476 18.1529 9.96711 18.1529 9.96711 7.10614 12.9849 7.10614 12.9849 0.154871 0.442967 0.154871 0.442967 7.10614 3.72265 7.10614 3.72265 34.2095 0.442967 34.2095 0.442967 41.1549 15.3876 41.1549C20.0517 41.1549 22.5949 35.9041 22.5949 29.6831 22.5949 24.9785 21.226 21.669 18.4606 19.4836L22.3299 7.10614 25.443 7.10614Z" fill-rule="evenodd" transform="matrix(1 0 0 -1.00134 974 164.219)"/><path d="M0.693302 15.0004 4.7388 15.0004C4.65366 10.4962 6.30286 7.40467 8.38037 7.40467 9.80787 7.40467 11.0137 9.37684 11.0137 11.9318 11.0137 19.6043 0.442671 18.5262 0.442671 31.7256 0.442671 39.8814 3.94601 43.157 6.85721 43.157 8.72666 43.157 10.2226 41.8825 11.2081 39.274L11.2765 39.274 11.2765 42.7215 15.2794 42.7215 15.2794 29.9851 11.2765 29.9851C10.9575 33.8098 9.65457 36.1807 7.85352 36.1807 6.46859 36.1807 5.51318 34.7469 5.51318 32.761 5.51318 25.9685 16.4427 27.5069 16.4427 12.6633 16.4427 2.63511 12.0949 0.156981 9.57255 0.156981 7.46466 0.156981 5.8444 1.52344 4.8072 4.24235L4.7388 4.24235 4.7388 0.718249 0.693302 0.718249Z" fill-rule="evenodd" transform="matrix(1 0 0 -1.00134 1000 165.22)"/><path d="M0.433132 7.10243 3.94113 7.10243 3.94113 34.2064 0.433132 34.2064 0.433132 41.1523 13.4334 41.1523 13.4334 34.2064 9.9372 34.2064 9.9372 7.10243 13.4334 7.10243 13.4334 0.152054 0.433132 0.152054Z" fill-rule="evenodd" transform="matrix(1 0 0 -1.00134 1018 164.219)"/><path d="M22.4617 24.6796 18.2431 24.6796 18.2431 34.2092 14.6153 34.2092 14.6153 7.10526 18.2431 7.10526 18.2431 0.154882 4.66638 0.154882 4.66638 7.10526 8.30807 7.10526 8.30807 34.2092 4.66638 34.2092 4.66638 24.6796 0.461668 24.6796 0.461668 41.1551 22.4617 41.1551Z" fill-rule="evenodd" transform="matrix(1 0 0 -1.00134 1033 164.219)"/><path d="M6.69417 7.10243 10.0826 7.10243 10.0826 18.15 3.47281 34.2064 0.460608 34.2064 0.460608 41.1523 12.2935 41.1523 12.2935 34.2064 10.0826 34.2064 13.7537 24.1977 17.2405 34.2064 15.1539 34.2064 15.1539 41.1523 25.4608 41.1523 25.4608 34.2064 22.4499 34.2064 16.1764 18.15 16.1764 7.10243 19.5926 7.10243 19.5926 0.152054 6.69417 0.152054Z" fill-rule="evenodd" transform="matrix(1 0 0 -1.00134 1056 164.219)"/><path d="M0.466953 7.10243 3.58868 7.10243 3.58868 34.2064 0.466953 34.2064 0.466953 41.1523 12.478 41.1523 17.7713 17.1245 23.2442 41.1523 35.4256 41.1523 35.4256 34.2064 32.3162 34.2064 32.3162 7.10243 35.4669 7.10243 35.4669 0.152054 23.0615 0.152054 23.0615 7.10243 26.2263 7.10243 26.2263 34.2064 25.666 34.2064 18.1474 0.152054 15.5306 0.152054 8.04238 34.2064 7.49446 34.2064 7.49446 7.10243 10.6147 7.10243 10.6147 0.152054 0.466953 0.152054Z" fill-rule="evenodd" transform="matrix(1 0 0 -1.00134 1090 164.219)"/><path d="M12.6636 32.5248 12.5771 32.5248 10.3765 20.154 14.5965 20.154ZM25.4803 0.156061 13.7067 0.156061 13.7067 7.10644 16.7291 7.10644 15.5979 14.0957 9.31636 14.0957 8.00401 7.10644 11.237 7.10644 11.237 0.156061 0.480099 0.156061 0.480099 7.10644 3.51471 7.10644 8.25795 34.2104 4.99717 34.2104 4.99717 41.1563 20.8068 41.1563 20.8068 34.2104 17.5602 34.2104 22.6422 7.10644 25.4803 7.10644Z" fill-rule="evenodd" transform="matrix(1 0 0 -1.00134 1126 164.219)"/><path d="M0.468567 7.10243 3.83379 7.10243 3.83379 34.2064 0.468567 34.2064 0.468567 41.1523 13.3825 41.1523 13.3825 34.2064 9.9646 34.2064 9.9646 7.10243 16.8722 7.10243 16.8722 19.7816 21.4688 19.7816 21.4688 0.152054 0.468567 0.152054Z" fill-rule="evenodd" transform="matrix(1 0 0 -1.00134 1152 164.219)"/><path d="M12.6606 32.5248 12.5894 32.5248 10.3996 20.154 14.6086 20.154ZM25.4901 0.156061 13.7175 0.156061 13.7175 7.10644 16.7689 7.10644 15.61 14.0957 9.32888 14.0957 8.01516 7.10644 11.2616 7.10644 11.2616 0.156061 0.490057 0.156061 0.490057 7.10644 3.54006 7.10644 8.25495 34.2104 5.03631 34.2104 5.03631 41.1563 20.8168 41.1563 20.8168 34.2104 17.5721 34.2104 22.6367 7.10644 25.4901 7.10644Z" fill-rule="evenodd" transform="matrix(1 0 0 -1.00134 1173 164.219)"/><path d="M6.69979 7.10243 10.1041 7.10243 10.1041 18.15 3.50618 34.2064 0.490618 34.2064 0.490618 41.1523 12.3177 41.1523 12.3177 34.2064 10.1041 34.2064 13.7772 24.1977 17.2798 34.2064 15.1627 34.2064 15.1627 41.1523 25.4906 41.1523 25.4906 34.2064 22.4797 34.2064 16.2136 18.15 16.2136 7.10243 19.5901 7.10243 19.5901 0.152054 6.69979 0.152054Z" fill-rule="evenodd" transform="matrix(1 0 0 -1.00134 1197 164.219)"/><path d="M0.740328 15.0004 4.76055 15.0004C4.69066 10.4962 6.34126 7.40467 8.42055 7.40467 9.84927 7.40467 11.0393 9.37684 11.0393 11.9318 11.0393 19.6043 0.489723 18.5262 0.489723 31.7256 0.489723 39.8814 3.9702 43.157 6.89609 43.157 8.76714 43.157 10.2641 41.8825 11.2476 39.274L11.3189 39.274 11.3189 42.7215 15.2982 42.7215 15.2982 29.9851 11.3189 29.9851C10.9999 33.8098 9.71092 36.1807 7.89301 36.1807 6.52054 36.1807 5.53726 34.7469 5.53726 32.761 5.53726 25.9685 16.4897 27.5069 16.4897 12.6633 16.4897 2.63511 12.1215 0.156981 9.58621 0.156981 7.49185 0.156981 5.88218 1.52344 4.84409 4.24235L4.76055 4.24235 4.76055 0.718249 0.740328 0.718249Z" fill-rule="evenodd" transform="matrix(1 0 0 -1.00134 1223 165.22)"/><path d="M0.514084 7.10243 4.26957 7.10243 4.26957 34.2064 0.514084 34.2064 0.514084 41.1523 14.5143 41.1523 14.5143 34.2064 10.7429 34.2064 10.7429 7.10243 14.5143 7.10243 14.5143 0.152054 0.514084 0.152054Z" fill-rule="evenodd" transform="matrix(1 0 0 -1.00134 1241 164.219)"/><path d="M12.6747 32.5248 12.605 32.5248 10.4347 20.154 14.6349 20.154ZM25.5071 0.156061 13.7322 0.156061 13.7322 7.10644 16.7636 7.10644 15.6228 14.0957 9.36182 14.0957 8.03697 7.10644 11.2804 7.10644 11.2804 0.156061 0.507104 0.156061 0.507104 7.10644 3.53853 7.10644 8.29065 34.2104 5.0333 34.2104 5.0333 41.1563 20.8263 41.1563 20.8263 34.2104 17.5828 34.2104 22.6458 7.10644 25.5071 7.10644Z" fill-rule="evenodd" transform="matrix(1 0 0 -1.00134 1255 164.219)"/><path d="M212.193 264.183 240.339 292.366C240.339 292.366 245.135 296.017 252.067 294.104 258.938 292.183 285.963 285.865 285.963 285.865 285.963 285.865 292.28 258.812 294.201 251.926 296.123 245.039 292.465 240.237 292.465 240.237L264.302 212.078 264.502 211.537 304.378 211.537C304.378 211.537 310.345 210.715 313.847 204.484 317.382 198.264 332.017 174.686 332.017 174.686 332.017 174.686 317.382 151.108 313.847 144.868 310.345 138.634 304.378 137.834 304.378 137.834L264.502 137.834 264.302 137.296 292.465 109.12C292.465 109.12 296.123 104.326 294.201 97.4169 292.28 90.5369 285.963 63.5166 285.963 63.5166 285.963 63.5166 258.938 57.1895 252.067 55.2607 245.135 53.341 240.339 56.9817 240.339 56.9817L212.193 85.149 211.656 84.926 211.656 45.1233C211.656 45.1233 210.825 39.1442 204.583 35.6105 198.373 32.0812 174.794 17.4399 174.794 17.4399 174.794 17.4399 151.197 32.0812 144.987 35.6105 138.713 39.1442 137.916 45.1233 137.916 45.1233L137.916 84.926 137.394 85.149 109.217 56.9817C109.217 56.9817 104.435 53.341 97.5339 55.2607 90.6321 57.1895 63.6085 63.5166 63.6085 63.5166 63.6085 63.5166 57.2887 90.5292 55.3521 97.4169 53.4477 104.318 57.1055 109.12 57.1055 109.12L85.2666 137.296 85.0514 137.834 45.1776 137.834C45.1776 137.834 39.229 138.634 35.6948 144.868 32.173 151.108 17.5371 174.686 17.5371 174.686 17.5371 174.686 32.173 198.264 35.6948 204.484 39.229 210.715 45.1776 211.537 45.1776 211.537L85.0514 211.537 85.2666 212.078 57.1055 240.237C57.1055 240.237 53.4477 245.039 55.3521 251.926 57.2887 258.812 63.6085 285.865 63.6085 285.865 63.6085 285.865 90.6321 292.183 97.5033 294.104 104.435 296.017 109.217 292.366 109.217 292.366L137.394 264.183 137.916 264.406 137.916 304.264C137.916 304.264 138.713 310.228 144.987 313.739 151.197 317.26 174.794 331.917 174.794 331.917 174.794 331.917 198.373 317.26 204.583 313.739 210.825 310.228 211.656 304.264 211.656 304.264L211.656 264.406ZM326.315 213.974C326.315 213.974 321.042 223.866 310.742 223.866L293.542 223.866 305.7 236.042C312.972 243.308 309.714 254.053 309.714 254.053L298.183 298.07 254.158 309.611C254.158 309.611 243.415 312.879 236.141 305.6L223.967 293.426 223.967 310.643C223.967 320.926 214.083 326.23 214.083 326.23L174.794 349.178 135.488 326.23C135.488 326.23 125.587 320.926 125.587 310.643L125.587 293.426 113.428 305.6C106.143 312.879 95.4262 309.611 95.4262 309.611L51.3875 298.07 39.8444 254.053C39.8444 254.053 36.5989 243.308 43.8687 236.042L56.0304 223.866 38.8133 223.866C28.5289 223.866 23.24 213.974 23.24 213.974L0.277314 174.686 23.24 135.398C23.24 135.398 28.5289 125.491 38.8133 125.491L56.0304 125.491 43.8687 113.333C36.5989 106.049 39.8444 95.3337 39.8444 95.3337L51.3875 51.2946 95.4262 39.746C95.4262 39.746 106.143 36.4855 113.428 43.7731L125.587 55.9372 125.587 38.7289C125.587 28.4234 135.488 23.1593 135.488 23.1593L174.794 0.178211 214.083 23.1593C214.083 23.1593 223.967 28.4234 223.967 38.7289L223.967 55.9372 236.141 43.7731C243.415 36.4855 254.158 39.746 254.158 39.746L298.183 51.2946 309.714 95.3337C309.714 95.3337 312.972 106.049 305.7 113.333L293.542 125.491 310.742 125.491C321.042 125.491 326.315 135.398 326.315 135.398L349.278 174.686Z" fill-rule="evenodd" transform="matrix(1 0 0 -1.00134 0 351.469)"/><path d="M297.094 187.523C293.585 193.765 287.608 194.589 287.608 194.589L247.67 194.589 247.468 195.129 275.677 223.336C275.677 223.336 279.341 228.148 277.417 235.044 275.491 241.942 269.163 269.039 269.163 269.039 269.163 269.039 242.095 275.368 235.211 277.294 228.269 279.21 223.464 275.553 223.464 275.553L195.273 247.322 194.735 247.548 194.735 287.471C194.735 287.471 193.902 293.444 187.65 296.963 181.43 300.487 157.81 315.169 157.81 315.169 157.81 315.169 134.176 300.487 127.956 296.963 121.672 293.444 120.872 287.471 120.872 287.471L120.872 247.548 120.349 247.322 92.1255 275.553C92.1255 275.553 87.3374 279.21 80.3921 277.294 73.5112 275.368 46.4416 269.039 46.4416 269.039 46.4416 269.039 40.1128 241.942 38.1716 235.044 36.2655 228.148 39.9292 223.336 39.9292 223.336L68.1369 195.129 67.9199 194.589 27.9817 194.589C27.9817 194.589 22.023 193.765 18.4816 187.523 14.9553 181.293 0.293913 157.677 0.293913 157.677 0.293913 157.677 14.9553 134.06 18.4816 127.808 22.023 121.563 27.9817 120.762 27.9817 120.762L67.9199 120.762 68.1369 120.225 39.9292 92.003C39.9292 92.003 36.2655 87.1905 38.1716 80.2776 40.1128 73.3786 46.4416 46.3208 46.4416 46.3208 46.4416 46.3208 73.5112 39.9848 80.4242 38.0543 87.3374 36.1282 92.1255 39.7784 92.1255 39.7784L120.349 67.9925 120.872 67.7675 120.872 27.8986C120.872 27.8986 121.672 21.9095 127.956 18.3683 134.176 14.833 157.81 0.169113 157.81 0.169113 157.81 0.169113 181.43 14.833 187.65 18.3683 193.902 21.9095 194.735 27.8986 194.735 27.8986L194.735 67.7675 195.273 67.9925 223.464 39.7784C223.464 39.7784 228.269 36.1282 235.211 38.0543 242.095 39.9848 269.163 46.3208 269.163 46.3208 269.163 46.3208 275.491 73.3863 277.417 80.2776 279.341 87.1996 275.677 92.003 275.677 92.003L247.468 120.225 247.67 120.762 287.608 120.762C287.608 120.762 293.585 121.563 297.094 127.808 300.636 134.06 315.294 157.677 315.294 157.677 315.294 157.677 300.636 181.293 297.094 187.523" fill="#D8A620" fill-rule="evenodd" transform="matrix(1 0 0 -1.00134 17 334.446)"/><path d="M228.83 107.557C226.622 103.78 222.834 103.295 222.834 103.295L192.283 103.295 192.283 148.067 222.834 148.067C222.834 148.067 226.622 147.567 228.83 143.751 231.085 139.962 240.327 125.675 240.327 125.675 240.327 125.675 231.085 111.329 228.83 107.557M210.25 72.8599C210.25 72.8599 212.55 69.8787 211.461 65.586 210.358 61.351 206.785 44.6704 206.785 44.6704 206.785 44.6704 190.122 41.092 185.876 40.0027 181.612 38.9198 178.578 41.2458 178.578 41.2458L161.117 58.6776 192.283 58.6776 192.283 90.8065ZM74.5481 176.946 177.06 176.946 177.06 74.4018 74.5481 74.4018ZM148.163 28.6264C148.163 28.6264 147.688 24.8682 143.9 22.6153 140.115 20.3835 125.813 11.1368 125.813 11.1368 125.813 11.1368 111.479 20.3835 107.693 22.6153 103.936 24.8682 103.429 28.6264 103.429 28.6264L103.429 58.6776 148.163 58.6776ZM73.031 41.2458C73.031 41.2458 70.0107 38.9198 65.749 40.0089 61.4706 41.092 44.8214 44.6704 44.8214 44.6704 44.8214 44.6704 41.236 61.351 40.147 65.586 39.058 69.8787 41.3883 72.8599 41.3883 72.8599L57.6856 89.1903 57.6856 58.6776 90.4919 58.6776ZM28.7876 103.295C28.7876 103.295 25.0163 103.78 22.7621 107.557 20.5398 111.329 11.2823 125.675 11.2823 125.675 11.2823 125.675 20.5398 139.962 22.7621 143.751 25.0163 147.567 28.7876 148.067 28.7876 148.067L57.6856 148.067 57.6856 103.295ZM41.3883 178.454C41.3883 178.454 39.058 181.467 40.147 185.731 41.236 189.994 44.8214 206.659 44.8214 206.659 44.8214 206.659 61.4706 210.247 65.749 211.327 70.0107 212.448 73.031 210.101 73.031 210.101L88.1768 194.945 57.6856 194.945 57.6856 162.15ZM103.429 222.697C103.429 222.697 103.936 226.478 107.693 228.714 111.479 230.952 125.813 240.223 125.813 240.223 125.813 240.223 140.115 230.952 143.9 228.714 147.688 226.478 148.163 222.697 148.163 222.697L148.163 194.945 103.429 194.945ZM178.578 210.101C178.578 210.101 181.612 212.448 185.86 211.327 190.122 210.247 206.785 206.659 206.785 206.659 206.785 206.659 210.358 189.994 211.461 185.731 212.55 181.467 210.219 178.454 210.219 178.454L192.283 160.509 192.283 194.945 163.432 194.945ZM236.725 149.508C236.725 149.508 233.398 155.516 226.853 155.516L197.879 155.516 218.359 176.025C222.991 180.617 221.119 187.247 221.119 187.247L214.528 214.404 187.362 220.988C187.362 220.988 180.755 222.875 176.14 218.243L155.66 197.766 155.66 226.745C155.66 233.254 149.634 236.59 149.634 236.59L125.813 251.161 101.956 236.59C101.956 236.59 95.9478 233.254 95.9478 226.745L95.9478 197.766 75.4512 218.243C70.8514 222.875 64.2305 220.988 64.2305 220.988L37.0808 214.404 30.489 187.24C30.489 187.24 28.6185 180.617 33.232 176.025L53.7301 155.516 24.7558 155.516C18.2095 155.516 14.8678 149.508 14.8678 149.508L0.287114 125.675 14.8678 101.814C14.8678 101.814 18.2095 95.7971 24.7558 95.7971L53.7301 95.7971 33.232 75.3218C28.6185 70.7121 30.489 64.1067 30.489 64.1067L37.0808 36.9209 64.2305 30.3522C64.2305 30.3522 70.8514 28.4724 75.4512 33.0869L95.9478 53.5728 95.9478 24.5865C95.9478 18.0603 101.956 14.7334 101.956 14.7334L125.813 0.160972 149.634 14.7334C149.634 14.7334 155.66 18.0603 155.66 24.5865L155.66 53.5728 176.14 33.0869C180.755 28.4724 187.362 30.3522 187.362 30.3522L214.528 36.9209 221.119 64.1067C221.119 64.1067 222.991 70.7121 218.359 75.3218L197.879 95.7971 226.853 95.7971C233.398 95.7971 236.725 101.814 236.725 101.814L251.287 125.675Z" fill-rule="evenodd" transform="matrix(1 0 0 -1.00134 49 302.403)"/><path d="M46.2713 17.7721C45.3512 17.7721 44.5822 18.5417 44.5822 19.4811 44.5822 20.4142 45.3512 21.1838 46.2713 21.1932 47.21 21.1838 47.9607 20.4142 47.9607 19.4811 47.9607 18.5417 47.21 17.7721 46.2713 17.7721M92.2715 33.5261C78.4797 43.6284 71.3841 40.8393 70.2458 40.7321 69.1257 40.642 46.5642 31.7253 46.2713 31.6167 45.9815 31.7253 23.4338 40.642 22.2971 40.7321 21.1602 40.8393 14.0812 43.6284 0.271309 33.5261L41.4036 17.6863 6.64527 0.163838 16.6448 0.163838 46.2713 15.3181 75.8995 0.163838 85.9127 0.163838 51.1561 17.6863Z" fill-rule="evenodd" transform="matrix(1 0 0 -1.00134 129 196.262)"/><path d="M61.5111 14.5302 37.7686 5.33431 14.0262 14.5302C14.0262 14.5302 6.68202 16.7605 0.276855 12.8284L33.3152 0.160046C33.3152 0.160046 34.5369 2.48601 37.7686 2.50982 41.0018 2.48601 42.239 0.160046 42.239 0.160046L75.2771 12.8284C68.8584 16.7605 61.5111 14.5302 61.5111 14.5302" fill="#FFFFFF" fill-rule="evenodd" transform="matrix(1 0 0 -1.00134 137 174.232)"/><path d="M357.28 64.035 352.842 64.2052C353.93 60.6592 354.504 56.9738 354.504 53.2008 354.504 30.0164 332.806 10.3292 306.837 3.1943L0.331642 3.1943 0.328514 0.206419 1072.2 0.20497 1073.45 0.306128 1177.4 0.306128C1219.89 0.306128 1254.33 23.9885 1254.33 53.2008L1254.33 64.035Z" fill="#159795" fill-rule="evenodd" transform="matrix(1 0 0 -1.00134 21 375.501)"/><path d="M447.276 19.6457C446.918 20.1394 446.291 20.4734 445.396 20.6476 444.501 20.8219 443.557 20.909 442.565 20.909 440.251 20.909 438.268 21.2414 436.615 21.9061 434.962 22.5709 434.136 23.9437 434.136 26.0246 434.136 27.3541 434.588 28.3585 435.491 29.0378 436.395 29.717 437.517 30.0567 438.858 30.0567 440.911 30.0567 442.581 29.4782 443.868 28.3214 445.154 27.1645 446.017 25.5595 446.455 23.5063 446.728 22.2482 447.002 20.9902 447.276 19.7322 447.276 19.7034 447.276 19.6745 447.276 19.6457ZM46.353 19.6457C45.9949 20.1394 45.3682 20.4734 44.4729 20.6476 43.5776 20.8219 42.6341 20.909 41.6424 20.909 39.3284 20.909 37.3451 21.2414 35.6922 21.9061 34.0394 22.5709 33.213 23.9437 33.213 26.0246 33.213 27.3541 33.6647 28.3585 34.5682 29.0378 35.4716 29.717 36.594 30.0567 37.9351 30.0567 39.9883 30.0567 41.6581 29.4782 42.9446 28.3214 44.2312 27.1645 45.0935 25.5595 45.5317 23.5063 45.8055 22.2482 46.0792 20.9902 46.353 19.7322 46.353 19.7034 46.353 19.6745 46.353 19.6457ZM616.781 10.9337C614.743 10.9337 613.001 11.7105 611.554 13.2641 610.108 14.8178 609.137 16.7127 608.641 18.9488 613.297 18.9488 617.952 18.9488 622.608 18.9488 622.608 18.368 622.608 17.7872 622.608 17.2063 622.608 15.3478 622.084 13.8377 621.037 12.6761 619.991 11.5145 618.572 10.9337 616.781 10.9337ZM491.082 10.9337C488.299 10.9337 486.089 12.2303 484.45 14.8235 482.81 17.4167 481.991 20.2633 481.991 23.3633 481.991 25.3916 482.473 27.0142 483.437 28.2312 484.401 29.4482 485.834 30.0567 487.735 30.0567 490.544 30.0567 492.796 28.7311 494.491 26.0801 496.185 23.429 497.032 20.5387 497.032 17.4092 497.032 15.4099 496.508 13.8309 495.462 12.672 494.415 11.5131 492.955 10.9337 491.082 10.9337ZM407.944 10.9337C405.906 10.9337 404.163 11.7105 402.717 13.2641 401.271 14.8178 400.3 16.7127 399.804 18.9488 404.459 18.9488 409.115 18.9488 413.77 18.9488 413.77 18.368 413.77 17.7872 413.77 17.2063 413.77 15.3478 413.247 13.8377 412.2 12.6761 411.153 11.5145 409.735 10.9337 407.944 10.9337ZM383.499 10.9337C381.02 10.9337 378.995 12.0807 377.425 14.3749 375.855 16.6691 375.07 19.1811 375.07 21.9109 375.07 23.9727 375.552 25.6643 376.516 26.9857 377.48 28.307 378.912 28.9676 380.813 28.9676 383.32 28.9676 385.365 27.7988 386.949 25.461 388.533 23.1233 389.325 20.575 389.325 17.8162 389.325 15.6963 388.857 14.0192 387.92 12.785 386.984 11.5508 385.51 10.9337 383.499 10.9337ZM358.185 10.9337C355.403 10.9337 353.192 12.2303 351.553 14.8235 349.914 17.4167 349.094 20.2633 349.094 23.3633 349.094 25.3916 349.577 27.0142 350.541 28.2312 351.505 29.4482 352.937 30.0567 354.838 30.0567 357.648 30.0567 359.9 28.7311 361.594 26.0801 363.288 23.429 364.135 20.5387 364.135 17.4092 364.135 15.4099 363.612 13.8309 362.565 12.672 361.518 11.5131 360.058 10.9337 358.185 10.9337ZM334.237 10.9337C332.198 10.9337 330.456 11.7105 329.01 13.2641 327.564 14.8178 326.593 16.7127 326.097 18.9488 330.752 18.9488 335.408 18.9488 340.063 18.9488 340.063 18.368 340.063 17.7872 340.063 17.2063 340.063 15.3478 339.54 13.8377 338.493 12.6761 337.446 11.5145 336.027 10.9337 334.237 10.9337ZM268.595 10.9337C265.923 10.9337 263.781 12.165 262.17 14.6278 260.558 17.0905 259.752 19.7996 259.752 22.7548 259.752 24.986 260.296 26.7607 261.384 28.0791 262.473 29.3975 264.063 30.0567 266.157 30.0567 268.802 30.0567 270.916 28.7746 272.5 26.2104 274.084 23.6463 274.876 20.9008 274.876 17.9741 274.876 15.8301 274.339 14.1207 273.264 12.8459 272.19 11.5711 270.633 10.9337 268.595 10.9337ZM165.851 10.9337C163.179 10.9337 161.038 12.165 159.426 14.6278 157.815 17.0905 157.009 19.7996 157.009 22.7548 157.009 24.986 157.553 26.7607 158.641 28.0791 159.729 29.3975 161.32 30.0567 163.414 30.0567 166.058 30.0567 168.172 28.7746 169.756 26.2104 171.34 23.6463 172.132 20.9008 172.132 17.9741 172.132 15.8301 171.595 14.1207 170.521 12.8459 169.446 11.5711 167.89 10.9337 165.851 10.9337ZM106.414 10.9337C104.376 10.9337 102.633 11.7105 101.187 13.2641 99.7411 14.8178 98.77 16.7127 98.2742 18.9488 102.93 18.9488 107.585 18.9488 112.241 18.9488 112.241 18.368 112.241 17.7872 112.241 17.2063 112.241 15.3478 111.717 13.8377 110.67 12.6761 109.624 11.5145 108.205 10.9337 106.414 10.9337ZM81.2243 10.9337C78.4421 10.9337 76.2314 12.2303 74.5923 14.8235 72.9533 17.4167 72.1338 20.2633 72.1338 23.3633 72.1338 25.3916 72.6158 27.0142 73.58 28.2312 74.5441 29.4482 75.9766 30.0567 77.8774 30.0567 80.6872 30.0567 82.9391 28.7311 84.6333 26.0801 86.3275 23.429 87.1745 20.5387 87.1745 17.4092 87.1745 15.4099 86.6511 13.8309 85.6043 12.672 84.5576 11.5131 83.0975 10.9337 81.2243 10.9337ZM547.709 9.277C548.583 9.27836 549.456 9.27972 550.33 9.28108 548.797 16.7726 547.265 24.264 545.732 31.7555 544.859 31.7544 543.985 31.7532 543.112 31.7521 544.644 24.2604 546.177 16.7687 547.709 9.277ZM285.125 9.27632C285.689 15.6534 286.254 22.0304 286.818 28.4075 289.774 22.0311 292.729 15.6547 295.685 9.27836 296.704 9.27836 297.723 9.27836 298.742 9.27836 299.225 15.6159 299.707 21.9535 300.19 28.2911 303.237 21.9556 306.285 15.62 309.332 9.28448 310.251 9.28244 311.17 9.2804 312.089 9.27836 308.356 16.7707 304.624 24.2631 300.891 31.7555 299.958 31.7553 299.025 31.7551 298.092 31.7548 297.583 25.4472 297.075 19.1396 296.567 12.8319 293.613 19.1389 290.659 25.4458 287.705 31.7528 286.756 31.7537 285.807 31.7546 284.859 31.7555 284.032 24.2631 283.206 16.7707 282.379 9.27836 283.294 9.27768 284.21 9.277 285.125 9.27632ZM585.627 9.27428C586.5 9.27564 587.373 9.277 588.247 9.27836 587.255 14.1136 586.264 18.9488 585.272 23.784 585.079 24.5916 584.982 25.3415 584.982 26.0334 584.982 27.4179 585.402 28.4345 586.241 29.0834 587.08 29.7322 588.146 30.0567 589.439 30.0567 591.365 30.0567 593.092 29.2254 594.619 27.5628 596.146 25.9003 597.198 23.6521 597.776 20.8185 598.561 16.9706 599.346 13.1228 600.131 9.27496 601.004 9.27609 601.877 9.27723 602.75 9.27836 601.221 16.7707 599.692 24.2631 598.163 31.7555 597.364 31.7555 596.566 31.7555 595.767 31.7555 596.015 30.3906 596.263 29.0257 596.511 27.6608 595.629 29.0421 594.507 30.1715 593.143 31.049 591.78 31.9266 590.34 32.3654 588.825 32.3654 586.842 32.3654 585.272 31.8813 584.115 30.9132 582.958 29.9452 582.379 28.4209 582.379 26.3404 582.379 25.6761 582.49 24.7949 582.711 23.6968 583.683 18.8893 584.655 14.0818 585.627 9.27428ZM566.86 8.92988C567.327 8.92988 567.794 8.92988 568.261 8.92988 568.068 9.83012 567.876 10.7304 567.684 11.6306 567.189 11.6306 566.694 11.6306 566.199 11.6306 564.027 11.6306 562.274 12.4234 560.941 14.0091 559.607 15.5947 558.693 17.5914 558.198 19.999 557.398 23.919 556.598 27.8389 555.798 31.7589 554.924 31.7578 554.051 31.7566 553.178 31.7555 554.707 24.2631 556.236 16.7707 557.765 9.27836 558.554 9.27927 559.343 9.28018 560.132 9.28108 559.779 11.0101 559.426 12.7391 559.073 14.4682 560.034 12.6513 561.119 11.2741 562.328 10.3364 563.536 9.39872 565.047 8.92988 566.86 8.92988ZM67.6605 8.92988C68.1275 8.92988 68.5945 8.92988 69.0615 8.92988 68.8691 9.83012 68.6767 10.7304 68.4843 11.6306 67.9893 11.6306 67.4943 11.6306 66.9994 11.6306 64.8274 11.6306 63.0747 12.4234 61.7413 14.0091 60.4078 15.5947 59.4936 17.5914 58.9986 19.999 58.1985 23.919 57.3983 27.8389 56.5981 31.7589 55.725 31.7578 54.8519 31.7566 53.9788 31.7555 55.5079 24.2631 57.037 16.7707 58.566 9.27836 59.3548 9.27927 60.1436 9.28018 60.9323 9.28108 60.5794 11.0101 60.2264 12.7391 59.8735 14.4682 60.835 12.6513 61.92 11.2741 63.1284 10.3364 64.3369 9.39872 65.8475 8.92988 67.6605 8.92988ZM617.112 8.62496C619.646 8.62496 621.63 9.42356 623.062 11.0208 624.495 12.618 625.211 14.7379 625.211 17.3806 625.211 17.9904 625.197 18.6221 625.17 19.2755 625.142 19.9289 625.087 20.5895 625.004 21.2575 619.44 21.2575 613.875 21.2575 608.311 21.2575 608.269 21.8353 608.228 22.4132 608.187 22.991 608.187 25.1005 608.71 26.8055 609.757 28.106 610.804 29.4064 612.346 30.0567 614.385 30.0567 616.038 30.0567 617.491 29.5452 618.744 28.5222 619.998 27.4992 620.872 26.1666 621.368 24.5245 622.236 24.5245 623.104 24.5245 623.971 24.5245 623.255 27.066 622.091 29.0081 620.48 30.351 618.868 31.6939 616.795 32.3654 614.261 32.3654 611.479 32.3654 609.337 31.5175 607.836 29.8218 606.334 28.1262 605.584 25.8 605.584 22.8433 605.584 19.0459 606.63 15.7268 608.724 12.886 610.818 10.0453 613.614 8.62496 617.112 8.62496ZM468.827 8.62496C470.811 8.62496 472.381 9.11138 473.538 10.0842 474.695 11.0571 475.274 12.5889 475.274 14.6798 475.274 15.3478 475.163 16.2335 474.942 17.337 473.97 22.1446 472.999 26.9521 472.027 31.7596 471.153 31.7582 470.28 31.7569 469.407 31.7555 470.398 26.9203 471.39 22.0851 472.381 17.2499 472.574 16.4368 472.67 15.6817 472.67 14.9848 472.67 13.5908 472.251 12.5672 471.412 11.9138 470.573 11.2604 469.507 10.9337 468.213 10.9337 466.287 10.9337 464.561 11.7689 463.034 13.4394 461.507 15.1099 460.455 17.3686 459.877 20.2154 459.092 24.0632 458.306 27.9111 457.521 31.7589 456.648 31.7578 455.775 31.7566 454.902 31.7555 456.431 24.2631 457.96 16.7707 459.489 9.27836 460.288 9.27836 461.087 9.27836 461.886 9.27836 461.638 10.6433 461.39 12.0081 461.142 13.373 462.023 11.9791 463.146 10.8393 464.509 9.95355 465.873 9.06782 467.312 8.62496 468.827 8.62496ZM443.474 8.62496C445.32 8.62496 447.014 9.017 448.557 9.80108 450.1 10.5852 450.871 11.8629 450.871 13.6344 450.871 14.7379 450.699 16.052 450.354 17.5766 450.01 19.1012 449.735 20.3863 449.528 21.4317 449.321 22.4772 449.039 23.8203 448.681 25.461 448.323 27.1018 448.144 28.2126 448.144 28.7934 448.144 29.1419 448.275 29.3815 448.536 29.5122 448.798 29.6428 449.122 29.7082 449.507 29.7082 449.852 29.6791 450.196 29.6501 450.54 29.6211 450.418 30.3471 450.297 31.0731 450.175 31.7991 449.552 31.9443 448.848 32.0169 448.063 32.0169 447.359 32.0169 446.811 31.8063 446.419 31.3853 446.026 30.9642 445.83 30.3616 445.83 29.5775 445.83 29.1709 445.83 28.7644 445.83 28.3578 445.83 28.3288 445.83 28.2997 445.83 28.2707 445.109 29.5348 444.07 30.5333 442.713 31.2661 441.355 31.999 439.914 32.3654 438.39 32.3654 436.284 32.3654 434.615 31.8582 433.382 30.8438 432.149 29.8294 431.533 28.2646 431.533 26.1492 431.533 23.9752 432.201 22.3739 433.537 21.3453 434.873 20.3166 436.223 19.6791 437.586 19.4327 438.95 19.1863 440.499 19.0124 442.235 18.911 443.97 18.8096 445.203 18.6646 445.933 18.4761 446.663 18.2875 447.235 17.8745 447.648 17.237 448.061 16.5995 448.268 15.5706 448.268 14.1503 448.268 12.9333 447.834 12.093 446.966 11.6293 446.098 11.1655 445.031 10.9337 443.764 10.9337 441.946 10.9337 440.437 11.3257 439.239 12.1098 438.041 12.8939 437.318 14.1862 437.07 15.9867 436.202 15.9867 435.334 15.9867 434.467 15.9867 434.797 13.5473 435.775 11.7105 437.4 10.4763 439.026 9.24206 441.05 8.62496 443.474 8.62496ZM408.275 8.62496C410.809 8.62496 412.792 9.42356 414.225 11.0208 415.657 12.618 416.374 14.7379 416.374 17.3806 416.374 17.9904 416.36 18.6221 416.332 19.2755 416.305 19.9289 416.25 20.5895 416.167 21.2575 410.602 21.2575 405.038 21.2575 399.473 21.2575 399.432 21.8353 399.391 22.4132 399.349 22.991 399.349 25.1005 399.873 26.8055 400.92 28.106 401.966 29.4064 403.509 30.0567 405.548 30.0567 407.2 30.0567 408.653 29.5452 409.907 28.5222 411.16 27.4992 412.035 26.1666 412.531 24.5245 413.399 24.5245 414.266 24.5245 415.134 24.5245 414.418 27.066 413.254 29.0081 411.642 30.351 410.031 31.6939 407.958 32.3654 405.424 32.3654 402.641 32.3654 400.5 31.5175 398.998 29.8218 397.497 28.1262 396.746 25.8 396.746 22.8433 396.746 19.0459 397.793 15.7268 399.887 12.886 401.98 10.0453 404.776 8.62496 408.275 8.62496ZM383.38 8.62496C385.089 8.62496 386.612 9.08256 387.948 9.99779 389.285 10.913 390.091 12.213 390.367 13.8978 390.691 12.3571 391.015 10.8164 391.339 9.27564 392.142 9.27654 392.944 9.27745 393.747 9.27836 392.397 15.9867 391.047 22.695 389.697 29.4033 388.87 33.4689 387.686 36.3729 386.143 38.1153 384.6 39.8577 382.218 40.729 378.995 40.729 376.598 40.729 374.629 40.1481 373.086 38.9865 371.544 37.8249 370.772 35.9809 370.772 33.4544 371.64 33.4544 372.508 33.4544 373.375 33.4544 373.375 35.2258 373.933 36.4963 375.049 37.2659 376.165 38.0355 377.604 38.4202 379.367 38.4202 382.204 38.4202 384.078 37.5055 384.987 35.6759 385.896 33.8464 386.805 31.0295 387.714 27.2252 387.686 27.1962 387.659 27.1672 387.631 27.1381 386.915 28.4159 385.896 29.425 384.573 30.1656 383.251 30.9061 381.846 31.2763 380.359 31.2763 377.852 31.2763 375.91 30.4269 374.532 28.7281 373.155 27.0292 372.466 24.8294 372.466 22.1287 372.466 18.5858 373.472 15.4494 375.484 12.7196 377.496 9.98985 380.128 8.62496 383.38 8.62496ZM334.567 8.62496C337.102 8.62496 339.085 9.42356 340.518 11.0208 341.95 12.618 342.666 14.7379 342.666 17.3806 342.666 17.9904 342.653 18.6221 342.625 19.2755 342.597 19.9289 342.542 20.5895 342.46 21.2575 336.895 21.2575 331.331 21.2575 325.766 21.2575 325.725 21.8353 325.683 22.4132 325.642 22.991 325.642 25.1005 326.166 26.8055 327.212 28.106 328.259 29.4064 329.802 30.0567 331.84 30.0567 333.493 30.0567 334.946 29.5452 336.2 28.5222 337.453 27.4992 338.328 26.1666 338.823 24.5245 339.691 24.5245 340.559 24.5245 341.427 24.5245 340.71 27.066 339.547 29.0081 337.935 30.351 336.324 31.6939 334.251 32.3654 331.716 32.3654 328.934 32.3654 326.792 31.5175 325.291 29.8218 323.79 28.1262 323.039 25.8 323.039 22.8433 323.039 19.0459 324.086 15.7268 326.179 12.886 328.273 10.0453 331.069 8.62496 334.567 8.62496ZM269.05 8.62496C271.584 8.62496 273.622 9.40756 275.165 10.9728 276.708 12.538 277.479 14.683 277.479 17.4078 277.479 21.4952 276.446 25.01 274.38 27.9521 272.314 30.8943 269.408 32.3654 265.661 32.3654 262.962 32.3654 260.868 31.5248 259.38 29.8436 257.893 28.1625 257.149 25.8869 257.149 23.0169 257.149 19.1037 258.223 15.7268 260.372 12.886 262.521 10.0453 265.413 8.62496 269.05 8.62496ZM246.589 8.62496C248.572 8.62496 250.142 9.11138 251.299 10.0842 252.456 11.0571 253.035 12.5889 253.035 14.6798 253.035 15.3478 252.925 16.2335 252.704 17.337 251.732 22.1446 250.76 26.9521 249.788 31.7596 248.915 31.7582 248.041 31.7569 247.168 31.7555 248.16 26.9203 249.151 22.0851 250.142 17.2499 250.335 16.4368 250.432 15.6817 250.432 14.9848 250.432 13.5908 250.012 12.5672 249.173 11.9138 248.334 11.2604 247.268 10.9337 245.975 10.9337 244.049 10.9337 242.322 11.7689 240.795 13.4394 239.268 15.1099 238.216 17.3686 237.638 20.2154 236.853 24.0632 236.068 27.9111 235.282 31.7589 234.409 31.7578 233.536 31.7566 232.663 31.7555 234.192 24.2631 235.721 16.7707 237.25 9.27836 238.049 9.27836 238.848 9.27836 239.647 9.27836 239.399 10.6433 239.151 12.0081 238.903 13.373 239.785 11.9791 240.907 10.8393 242.271 9.95355 243.634 9.06782 245.074 8.62496 246.589 8.62496ZM166.306 8.62496C168.84 8.62496 170.879 9.40756 172.422 10.9728 173.964 12.538 174.735 14.683 174.735 17.4078 174.735 21.4952 173.702 25.01 171.636 27.9521 169.57 30.8943 166.664 32.3654 162.918 32.3654 160.218 32.3654 158.125 31.5248 156.637 29.8436 155.149 28.1625 154.406 25.8869 154.406 23.0169 154.406 19.1037 155.48 15.7268 157.629 12.886 159.777 10.0453 162.67 8.62496 166.306 8.62496ZM130.444 8.62496C132.427 8.62496 133.998 9.11138 135.155 10.0842 136.312 11.0571 136.89 12.5889 136.89 14.6798 136.89 15.3478 136.78 16.2335 136.559 17.337 135.587 22.1446 134.615 26.9521 133.643 31.7596 132.77 31.7582 131.897 31.7569 131.023 31.7555 132.015 26.9203 133.006 22.0851 133.998 17.2499 134.19 16.4368 134.287 15.6817 134.287 14.9848 134.287 13.5908 133.867 12.5672 133.028 11.9138 132.189 11.2604 131.123 10.9337 129.83 10.9337 127.904 10.9337 126.177 11.7689 124.65 13.4394 123.123 15.1099 122.071 17.3686 121.494 20.2154 120.708 24.0632 119.923 27.9111 119.138 31.7589 118.265 31.7578 117.391 31.7566 116.518 31.7555 118.047 24.2631 119.576 16.7707 121.106 9.27836 121.904 9.27836 122.703 9.27836 123.502 9.27836 123.254 10.6433 123.006 12.0081 122.758 13.373 123.64 11.9791 124.762 10.8393 126.126 9.95355 127.49 9.06782 128.929 8.62496 130.444 8.62496ZM106.745 8.62496C109.279 8.62496 111.263 9.42356 112.695 11.0208 114.128 12.618 114.844 14.7379 114.844 17.3806 114.844 17.9904 114.83 18.6221 114.802 19.2755 114.775 19.9289 114.72 20.5895 114.637 21.2575 109.073 21.2575 103.508 21.2575 97.9436 21.2575 97.9023 21.8353 97.861 22.4132 97.8196 22.991 97.8196 25.1005 98.343 26.8055 99.3898 28.106 100.437 29.4064 101.979 30.0567 104.018 30.0567 105.671 30.0567 107.124 29.5452 108.377 28.5222 109.63 27.4992 110.505 26.1666 111.001 24.5245 111.869 24.5245 112.736 24.5245 113.604 24.5245 112.888 27.066 111.724 29.0081 110.113 30.351 108.501 31.6939 106.428 32.3654 103.894 32.3654 101.112 32.3654 98.9697 31.5175 97.4684 29.8218 95.9671 28.1262 95.2164 25.8 95.2164 22.8433 95.2164 19.0459 96.2632 15.7268 98.3568 12.886 100.45 10.0453 103.246 8.62496 106.745 8.62496ZM42.5515 8.62496C44.3971 8.62496 46.0913 9.017 47.6339 9.80108 49.1766 10.5852 49.9479 11.8629 49.9479 13.6344 49.9479 14.7379 49.7757 16.052 49.4314 17.5766 49.087 19.1012 48.8116 20.3863 48.6049 21.4317 48.3983 22.4772 48.116 23.8203 47.7579 25.461 47.3998 27.1018 47.2207 28.2126 47.2207 28.7934 47.2207 29.1419 47.3516 29.3815 47.6133 29.5122 47.875 29.6428 48.1986 29.7082 48.5843 29.7082 48.9286 29.6791 49.273 29.6501 49.6173 29.6211 49.4955 30.3471 49.3737 31.0731 49.2519 31.7991 48.6291 31.9443 47.9251 32.0169 47.14 32.0169 46.4362 32.0169 45.8881 31.8063 45.4956 31.3853 45.103 30.9642 44.9067 30.3616 44.9067 29.5775 44.9067 29.1709 44.9067 28.7644 44.9067 28.3578 44.9067 28.3288 44.9067 28.2997 44.9067 28.2707 44.1862 29.5348 43.1472 30.5333 41.7896 31.2661 40.432 31.999 38.9912 32.3654 37.4671 32.3654 35.3614 32.3654 33.6921 31.8582 32.4592 30.8438 31.2262 29.8294 30.6098 28.2646 30.6098 26.1492 30.6098 23.9752 31.2778 22.3739 32.6138 21.3453 33.9499 20.3166 35.2997 19.6791 36.6633 19.4327 38.0268 19.1863 39.5764 19.0124 41.3118 18.911 43.0473 18.8096 44.28 18.6646 45.01 18.4761 45.7401 18.2875 46.3117 17.8745 46.7249 17.237 47.1381 16.5995 47.3447 15.5706 47.3447 14.1503 47.3447 12.9333 46.9108 12.093 46.0431 11.6293 45.1753 11.1655 44.1079 10.9337 42.8407 10.9337 41.0226 10.9337 39.5144 11.3257 38.3161 12.1098 37.1178 12.8939 36.3947 14.1862 36.1467 15.9867 35.279 15.9867 34.4113 15.9867 33.5435 15.9867 33.8741 13.5473 34.852 11.7105 36.4773 10.4763 38.1026 9.24206 40.1273 8.62496 42.5515 8.62496ZM575.135 2.48294C576.007 2.48408 576.88 2.48521 577.752 2.48635 577.299 4.75194 576.847 7.01753 576.394 9.28312 577.806 9.28154 579.218 9.27995 580.63 9.27836 580.493 10.0479 580.355 10.8175 580.217 11.5871 578.776 11.5882 577.334 11.5893 575.893 11.5905 574.905 16.3944 573.917 21.1982 572.93 26.0021 572.851 26.4092 572.786 26.8015 572.734 27.1793 572.682 27.557 572.655 27.8768 572.655 28.1386 572.655 28.6037 572.759 28.9816 572.966 29.2722 573.173 29.5629 573.525 29.7082 574.022 29.7082 575.016 29.7082 576.038 29.6211 577.087 29.4468 576.935 30.2454 576.784 31.044 576.632 31.8426 575.832 31.9298 575.321 31.9806 575.101 31.9951 574.88 32.0096 574.508 32.0169 573.983 32.0169 572.797 32.0169 571.845 31.7918 571.128 31.3417 570.411 30.8916 570.052 30.0421 570.052 28.7934 570.052 28.1836 570.094 27.7044 570.176 27.3559 570.259 27.0074 570.315 26.717 570.342 26.4847 571.32 21.5188 572.297 16.5529 573.275 11.5871 571.994 11.5871 570.713 11.5871 569.432 11.5871 569.598 10.8175 569.763 10.0479 569.928 9.27836 571.211 9.27881 572.494 9.27927 573.777 9.27972 574.23 7.01413 574.682 4.74854 575.135 2.48294ZM520.541 0.653408C521.503 0.653862 522.465 0.654316 523.427 0.654769 524.678 10.1868 525.929 19.7188 527.179 29.2508 532.254 19.719 537.328 10.1872 542.403 0.655447 543.421 0.654768 544.439 0.654088 545.457 0.653408 539.782 11.0208 534.108 21.3881 528.433 31.7555 527.345 31.7555 526.257 31.7555 525.169 31.7555 523.626 21.3881 522.084 11.0208 520.541 0.653408ZM191.28 0.653408C191.886 0.653408 192.375 0.667926 192.747 0.696966 193.119 0.726007 193.525 0.813127 193.966 0.95833 193.815 1.71338 193.663 2.46842 193.512 3.22347 192.961 3.13635 192.424 3.04923 191.9 2.9621 190.716 2.9621 189.855 3.20157 189.318 3.68051 188.78 4.15945 188.388 4.97927 188.14 6.13997 187.924 7.18315 187.708 8.22633 187.492 9.26951 188.909 9.27246 190.327 9.27541 191.744 9.27836 191.579 10.0479 191.413 10.8175 191.248 11.5871 189.864 11.5886 188.48 11.5902 187.095 11.5918 185.676 18.3112 184.257 25.0307 182.837 31.7501 181.977 31.7519 181.117 31.7537 180.257 31.7555 181.663 25.0329 183.069 18.3103 184.475 11.5877 183.234 11.5875 181.993 11.5873 180.753 11.5871 180.918 10.8175 181.083 10.0479 181.248 9.27836 182.469 9.27723 183.69 9.27609 184.911 9.27496 185.132 8.18708 185.353 7.09921 185.574 6.01133 185.932 4.23987 186.546 2.90403 187.415 2.00378 188.284 1.10353 189.572 0.653408 191.28 0.653408ZM500.611 0.650004C501.484 0.651139 502.357 0.652274 503.23 0.653408 501.122 11.0208 499.015 21.3881 496.907 31.7555 496.067 31.7555 495.227 31.7555 494.387 31.7555 494.704 30.4051 495.021 29.0548 495.338 27.7044 494.346 29.2581 493.23 30.4233 491.991 31.2001 490.751 31.9769 489.25 32.3654 487.487 32.3654 484.842 32.3654 482.831 31.5392 481.454 29.8868 480.076 28.2345 479.388 26.0026 479.388 23.1911 479.388 19.5098 480.474 16.1618 482.648 13.1471 484.821 10.1323 487.613 8.62496 491.025 8.62496 492.813 8.62496 494.298 9.00928 495.481 9.77794 496.664 10.5466 497.489 11.7867 497.957 13.4983 498.841 9.21552 499.726 4.93276 500.611 0.650004ZM367.714 0.650004C368.587 0.651139 369.46 0.652274 370.333 0.653408 368.226 11.0208 366.118 21.3881 364.011 31.7555 363.171 31.7555 362.331 31.7555 361.491 31.7555 361.807 30.4051 362.124 29.0548 362.441 27.7044 361.449 29.2581 360.334 30.4233 359.094 31.2001 357.854 31.9769 356.353 32.3654 354.59 32.3654 351.946 32.3654 349.935 31.5392 348.557 29.8868 347.18 28.2345 346.491 26.0026 346.491 23.1911 346.491 19.5098 347.578 16.1618 349.751 13.1471 351.924 10.1323 354.717 8.62496 358.128 8.62496 359.916 8.62496 361.402 9.00928 362.584 9.77794 363.767 10.5466 364.593 11.7867 365.06 13.4983 365.945 9.21552 366.829 4.93276 367.714 0.650004ZM90.7533 0.650004C91.6264 0.651139 92.4995 0.652274 93.3726 0.653408 91.2651 11.0208 89.1575 21.3881 87.0499 31.7555 86.2099 31.7555 85.37 31.7555 84.53 31.7555 84.8468 30.4051 85.1636 29.0548 85.4804 27.7044 84.4887 29.2581 83.373 30.4233 82.1334 31.2001 80.8938 31.9769 79.3924 32.3654 77.6294 32.3654 74.9849 32.3654 72.974 31.5392 71.5966 29.8868 70.2192 28.2345 69.5306 26.0026 69.5306 23.1911 69.5306 19.5098 70.6172 16.1618 72.7904 13.1471 74.9636 10.1323 77.756 8.62496 81.1675 8.62496 82.9555 8.62496 84.4409 9.00928 85.6237 9.77794 86.8065 10.5466 87.6319 11.7867 88.0997 13.4983 88.9842 9.21552 89.8688 4.93276 90.7533 0.650004ZM549.474 0.649323C550.348 0.650685 551.221 0.652047 552.094 0.653408 551.781 2.11744 551.467 3.58148 551.153 5.04552 550.28 5.04438 549.407 5.04325 548.534 5.04211 548.847 3.57785 549.161 2.11359 549.474 0.649323ZM319.418 0.649323C320.292 0.650685 321.165 0.652047 322.038 0.653408 319.918 11.0208 317.797 21.3881 315.676 31.7555 314.803 31.7544 313.929 31.7532 313.056 31.7521 315.176 21.3845 317.297 11.0169 319.418 0.649323ZM210.55 0.649323C211.493 0.650685 212.436 0.652047 213.379 0.653408 212.249 6.18126 211.119 11.7091 209.988 17.237 210.026 17.2626 210.063 17.2883 210.1 17.3139 216.441 11.7604 222.782 6.2069 229.123 0.653408 230.434 0.656811 231.745 0.660214 233.056 0.663617 228.012 4.98676 222.968 9.3099 217.924 13.633 221.436 19.6741 224.948 25.7151 228.461 31.7562 227.392 31.7523 226.324 31.7485 225.255 31.7446 222.116 26.3166 218.976 20.8886 215.837 15.4605 213.649 17.301 211.462 19.1414 209.274 20.9818 208.55 24.573 207.825 28.1643 207.1 31.7555 206.157 31.7542 205.214 31.7528 204.271 31.7514 206.364 21.3841 208.457 11.0167 210.55 0.649323ZM16.0738 2.21808e-07C19.7651 2.21808e-07 22.6369 0.889246 24.6892 2.66773 26.7414 4.44622 27.7676 6.95468 27.7676 10.1931 26.831 10.1931 25.8944 10.1931 24.9578 10.1931 24.9578 7.68069 24.1313 5.77481 22.4785 4.47549 20.8257 3.17616 18.6081 2.5265 15.8259 2.5265 12.0795 2.5265 8.97351 4.20811 6.50804 7.57134 4.04256 10.9346 2.80983 14.8053 2.80983 19.1836 2.80983 22.4311 3.62936 25.0189 5.26842 26.9469 6.90747 28.8749 9.26964 29.8389 12.3549 29.8389 15.4953 29.8389 18.1123 28.7716 20.2059 26.6372 22.2994 24.5027 23.6079 21.7657 24.1313 18.426 20.743 18.426 17.3547 18.426 13.9664 18.426 14.1593 17.5839 14.3521 16.7417 14.5449 15.8995 18.7459 15.8995 22.9468 15.8995 27.1478 15.8995 26.1147 21.1849 25.0817 26.4702 24.0487 31.7555 23.4151 31.7555 22.7815 31.7555 22.1479 31.7555 22.3132 30.0131 22.4785 28.2707 22.6438 26.5283 21.3766 28.5461 19.8478 30.0234 18.0572 30.9602 16.2666 31.897 14.2006 32.3654 11.8591 32.3654 8.08511 32.3654 5.16511 31.2053 3.09907 28.8853 1.03304 26.5652 2.17268e-05 23.3897 2.17268e-05 19.3585 2.17268e-05 14.0224 1.42558 9.4619 4.27672 5.67714 7.12784 1.89238 11.0602 2.21808e-07 16.0738 2.21808e-07Z" fill="#FFFFFF" fill-rule="evenodd" transform="matrix(1 0 0 1.00134 494.957 325.517)"/><text fill="#000000" fill-opacity="0" font-family="Arial,Arial_MSFontService,sans-serif" font-size="40.729" x="2.17268e-05" y="35.6378">Garden of Knowledge and Virtue</text></g></svg>